<?xml version="1.0" encoding="UTF-8"?>
<svg version="1.1" xmlns="http://www.w3.org/2000/svg" width="585" height="426">
<path d="M0 0 C0 0.66 0 1.32 0 2 C0.5671875 2.09023437 1.134375 2.18046875 1.71875 2.2734375 C7.27861676 4.04421698 12.42492594 9.47507319 15.25 14.5 C15.8275 15.655 16.405 16.81 17 18 C17.827459 19.23312884 18.66115934 20.46208518 19.5 21.6875 C25.39303594 31.14545891 26.13911863 39.80854217 27 51 C8.19 51 -10.62 51 -30 51 C-31.32 47.04 -32.64 43.08 -34 39 C-37.82322036 33.35206082 -41.24400566 30.32728384 -48 29 C-54.34382732 28.29291721 -59.34774754 28.78597409 -65 32 C-68.87297978 35.3678085 -70.78055683 37.50698168 -71.23828125 42.70703125 C-71.388599 48.99664241 -71.4806707 53.16559214 -67 58 C-59.7976036 64.86740122 -51.7962979 68.23539364 -42.3203125 70.97265625 C-38.11289993 72.2744792 -34.14477184 73.96999288 -30.10546875 75.71484375 C-26.73376384 77.11017824 -23.3243839 78.31042869 -19.875 79.5 C-13.97249299 81.57174087 -8.51901209 84.07574733 -3 87 C-2.01 87.45375 -1.02 87.9075 0 88.375 C13.07248985 95.455932 24.21316537 106.63949612 29 121 C33.13750211 139.63177052 32.38688842 158.19357435 22.41015625 174.6171875 C19.51777865 179.15730099 19.51777865 179.15730099 18 181 C17.34 181 16.68 181 16 181 C15.59587891 181.90298828 15.59587891 181.90298828 15.18359375 182.82421875 C13.21803034 186.43748218 10.23087542 188.52967737 7 191 C6.27296875 191.57105469 5.5459375 192.14210938 4.796875 192.73046875 C-10.19742653 203.4103722 -26.42838916 204.57127061 -44.25 204.625 C-45.10395355 204.63207977 -45.9579071 204.63915955 -46.83773804 204.64645386 C-65.61307997 204.73130424 -82.79593086 200.94340606 -99 191 C-99 190.34 -99 189.68 -99 189 C-99.66 188.814375 -100.32 188.62875 -101 188.4375 C-111.38168107 183.46294449 -118.52509824 172.69240339 -123.6875 162.75 C-126.76539155 153.95602414 -128 146.38650694 -128 137 C-109.52 137 -91.04 137 -72 137 C-70.68 141.29 -69.36 145.58 -68 150 C-64.44915434 154.77750143 -61.46185722 158.51198418 -56 161 C-52.68041217 161.48023644 -49.41237761 161.50975929 -46.0625 161.5 C-45.18142578 161.52835938 -44.30035156 161.55671875 -43.39257812 161.5859375 C-39.12770613 161.59871614 -35.98618359 161.48183946 -32.55859375 158.78125 C-27.14932569 152.90125174 -26.47745554 148.98481199 -26.62890625 141.109375 C-27.12536403 136.94958142 -28.30017976 135.12166715 -31 132 C-31 131.34 -31 130.68 -31 130 C-31.7734375 129.62875 -31.7734375 129.62875 -32.5625 129.25 C-34.43149241 128.29154235 -36.25668481 127.24727308 -38.05859375 126.16796875 C-42.37123676 123.69863735 -46.8810355 121.87618759 -51.5 120.0625 C-52.37712646 119.71405029 -53.25425293 119.36560059 -54.15795898 119.0065918 C-59.41132903 116.94302405 -64.68971941 115.03938979 -70.0625 113.3125 C-75.39180409 111.59374176 -80.40849297 109.58801444 -85.45703125 107.171875 C-87.93720452 106.02893801 -90.43026588 105.10727925 -93 104.1875 C-99.05982211 101.80788782 -103.91348907 97.99373656 -109 94 C-109.63808594 93.55140625 -110.27617188 93.1028125 -110.93359375 92.640625 C-115.08054857 89.53759183 -117.89666045 85.58962949 -120.75 81.3125 C-121.12721191 80.76062012 -121.50442383 80.20874023 -121.89306641 79.64013672 C-127.88681477 70.22445417 -128.50273843 60.02574793 -128.4375 49.125 C-128.45748047 47.94808594 -128.47746094 46.77117187 -128.49804688 45.55859375 C-128.4891664 29.41389312 -122.82750399 18.34799448 -112.515625 6.43359375 C-111 5 -111 5 -109 5 C-108.67 4.01 -108.34 3.02 -108 2 C-105.33916031 0.00603743 -102.38757675 -2 -99 -2 C-99 -2.66 -99 -3.32 -99 -4 C-68.69159244 -16.02453126 -28.11357243 -21.32160845 0 0 Z " fill="#4DA963" transform="translate(128,222)"/>
<path d="M0 0 C2.41573344 0.02148187 4.82849504 0.00003722 7.24414062 -0.02539062 C21.00847424 -0.05132383 34.68954634 1.91338833 47.16601562 8.08398438 C47.85429443 8.41479004 48.54257324 8.7455957 49.25170898 9.08642578 C56.47858624 12.7512047 62.78798799 17.70748713 68.41601562 23.52148438 C68.41601562 24.18148438 68.41601562 24.84148438 68.41601562 25.52148438 C69.40601563 25.85148437 70.39601563 26.18148438 71.41601562 26.52148438 C73.90521062 28.62431577 75.32915503 30.91268351 76.85351562 33.77148438 C78.32233734 36.51563033 79.8080299 39.13920383 81.47851562 41.77148438 C85.49131005 48.7652118 87.41601562 56.5396047 87.41601562 64.52148438 C71.24601562 64.52148438 55.07601562 64.52148438 38.41601562 64.52148438 C37.09601563 62.21148437 35.77601563 59.90148438 34.41601562 57.52148438 C28.0643111 49.00342123 18.74713333 45.15011599 8.41601562 43.52148438 C-2.86871242 42.66980679 -13.05045126 44.47853107 -22.74414062 50.43554688 C-24.58398438 51.52148438 -24.58398438 51.52148438 -27.58398438 52.52148438 C-28.79280534 54.52164904 -28.79280534 54.52164904 -29.58398438 56.52148438 C-30.24398437 56.52148438 -30.90398437 56.52148438 -31.58398438 56.52148438 C-31.85339844 57.06675781 -32.1228125 57.61203125 -32.40039062 58.17382812 C-33.24197996 59.84311918 -34.10646454 61.50095275 -34.98632812 63.15039062 C-43.17523668 78.79891562 -45.58831468 95.92931667 -40.89648438 113.20898438 C-37.6351148 124.18938461 -37.6351148 124.18938461 -30.58398438 132.52148438 C-30.58398438 133.18148437 -30.58398438 133.84148437 -30.58398438 134.52148438 C-29.59398437 134.85148438 -28.60398438 135.18148437 -27.58398438 135.52148438 C-27.15085938 135.97523438 -26.71773437 136.42898437 -26.27148438 136.89648438 C-23.99673869 139.08698022 -21.42752414 140.19449915 -18.58398438 141.52148438 C-18.58398438 142.18148437 -18.58398438 142.84148437 -18.58398438 143.52148438 C-17.71773438 143.64523438 -16.85148437 143.76898438 -15.95898438 143.89648438 C-12.58398437 144.52148438 -12.58398437 144.52148438 -10.16210938 145.52929688 C0.69898272 148.54099708 16.44797797 148.89343743 26.66601562 143.77148438 C28.28246534 142.73821487 29.87316336 141.66173103 31.41601562 140.52148438 C32.03992188 140.15410156 32.66382813 139.78671875 33.30664062 139.40820312 C36.80691 137.34372386 38.94888368 134.69351116 41.41601562 131.52148438 C42.07601562 131.52148438 42.73601562 131.52148438 43.41601562 131.52148438 C43.78726563 130.56242187 43.78726563 130.56242187 44.16601562 129.58398438 C45.82315324 125.52399723 47.63503474 121.52869136 49.41601562 117.52148438 C31.59601563 117.19148438 13.77601563 116.86148438 -4.58398438 116.52148438 C-6.05758742 113.57427828 -5.72632033 110.5911307 -5.71679688 107.36132812 C-5.7177536 106.65625626 -5.71871033 105.95118439 -5.71969604 105.2247467 C-5.72037667 103.73438426 -5.71853059 102.24401886 -5.71435547 100.75366211 C-5.70899755 98.4646138 -5.71430847 96.175761 -5.72070312 93.88671875 C-5.72004248 92.44075477 -5.7187616 90.99479092 -5.71679688 89.54882812 C-5.71882111 88.86030258 -5.72084534 88.17177704 -5.72293091 87.46238708 C-5.69894201 82.63644201 -5.69894201 82.63644201 -4.58398438 81.52148438 C-1.81459471 81.42630634 0.92978722 81.39594172 3.69946289 81.40795898 C5.0017836 81.40773994 5.0017836 81.40773994 6.33041382 81.40751648 C9.21444149 81.40821592 12.09840542 81.41600975 14.98242188 81.42382812 C16.97639429 81.42569219 18.97036717 81.42711615 20.96434021 81.42811584 C26.22347265 81.4319419 31.48257765 81.44177292 36.74169922 81.45281982 C42.10383737 81.46303207 47.46597994 81.46761306 52.828125 81.47265625 C63.35743395 81.48339511 73.88672251 81.50047258 84.41601562 81.52148438 C85.5306133 85.13363401 85.06118796 87.50323705 84.08032227 91.15478516 C80.25594807 105.40038512 79.92140276 120.00397819 83.16601562 134.39648438 C84.81067515 142.18489606 84.81067515 142.18489606 83.16601562 145.83398438 C81.99023437 147.59570313 81.99023437 147.59570313 80.41601562 149.52148438 C79.72121094 150.41480469 79.02640625 151.308125 78.31054688 152.22851562 C76.06368038 155.03992144 73.7450648 157.77819415 71.41601562 160.52148438 C70.24039063 162.09929687 70.24039063 162.09929687 69.04101562 163.70898438 C57.06371929 176.54180188 40.36602886 184.25666147 23.41601562 187.52148438 C22.26975708 187.78203613 22.26975708 187.78203613 21.1003418 188.04785156 C-1.49521592 193.044839 -28.37493617 189.17288544 -48.33398438 177.27148438 C-49.75367027 176.35950072 -51.17108899 175.44395326 -52.58398438 174.52148438 C-53.24398437 174.19148437 -53.90398437 173.86148438 -54.58398438 173.52148438 C-54.58398438 172.86148438 -54.58398438 172.20148438 -54.58398438 171.52148438 C-55.13699219 171.28300781 -55.69 171.04453125 -56.25976562 170.79882812 C-59.13063753 169.22105483 -61.33708248 167.27386732 -63.77148438 165.08398438 C-64.65191406 164.30152344 -65.53234375 163.5190625 -66.43945312 162.71289062 C-68.58398438 160.52148438 -68.58398438 160.52148438 -69.58398438 157.52148438 C-70.24398437 157.52148438 -70.90398437 157.52148438 -71.58398438 157.52148438 C-72.16148437 156.46960938 -72.73898438 155.41773438 -73.33398438 154.33398438 C-74.63339288 152.03714258 -75.84443615 150.22033702 -77.58398438 148.20898438 C-79.92065113 145.06908843 -81.1490481 142.02102679 -82.50976562 138.36914062 C-83.24559185 136.4185322 -84.03801072 134.48860874 -84.87695312 132.58007812 C-94.36091451 110.35812754 -93.82513657 78.60013017 -85.03198242 56.30004883 C-84.23528797 54.36494806 -83.41621262 52.44154297 -82.58398438 50.52148438 C-82.11863281 49.43609375 -81.65328125 48.35070313 -81.17382812 47.23242188 C-77.68475861 39.71002688 -72.998756 33.75339426 -67.58398438 27.52148438 C-66.92269531 26.66554688 -66.26140625 25.80960938 -65.58007812 24.92773438 C-60.7773496 19.13814382 -54.21055291 14.96385764 -47.58398438 11.52148438 C-46.61074219 10.97492187 -45.6375 10.42835937 -44.63476562 9.86523438 C-30.31568569 2.15872841 -16.10127147 -0.16948707 0 0 Z " fill="#4DA862" transform="translate(245.583984375,-0.521484375)"/>
<path d="M0 0 C0.8545021 0.00092179 1.70900419 0.00184359 2.58940029 0.00279331 C3.56681683 0.00141865 4.54423336 0.00004398 5.55126858 -0.00137234 C6.63235897 0.00222294 7.71344936 0.00581821 8.82730007 0.00952244 C10.52464039 0.0093034 10.52464039 0.0093034 12.25627041 0.00907993 C16.01686389 0.00977964 19.77740855 0.01757472 23.53799343 0.02539158 C26.13731261 0.02725555 28.73663215 0.02867955 31.33595181 0.0296793 C37.49122295 0.03311442 43.64647378 0.04100527 49.80173725 0.05102879 C56.80767064 0.06219089 63.81360485 0.06770062 70.81954491 0.07272422 C85.23482007 0.08318791 99.65007438 0.10153301 114.06533718 0.12304783 C114.06533718 12.66304783 114.06533718 25.20304783 114.06533718 38.12304783 C90.96533718 38.12304783 67.86533718 38.12304783 44.06533718 38.12304783 C44.39533718 49.67304783 44.72533718 61.22304783 45.06533718 73.12304783 C75.26033718 73.61804783 75.26033718 73.61804783 106.06533718 74.12304783 C106.06533718 86.00304783 106.06533718 97.88304783 106.06533718 110.12304783 C85.60533718 110.12304783 65.14533718 110.12304783 44.06533718 110.12304783 C44.06533718 122.99304783 44.06533718 135.86304783 44.06533718 149.12304783 C67.16533718 149.12304783 90.26533718 149.12304783 114.06533718 149.12304783 C114.06533718 161.33304783 114.06533718 173.54304783 114.06533718 186.12304783 C111.19193956 187.08084703 109.40393199 187.24867541 106.42138577 187.25003147 C105.46790752 187.2528513 104.51442928 187.25567112 103.53205776 187.25857639 C101.96564289 187.25554005 101.96564289 187.25554005 100.36758327 187.25244236 C99.26659801 187.25419468 98.16561275 187.255947 97.03126431 187.25775242 C93.38375184 187.26216205 89.73628766 187.25923644 86.08877468 187.25586033 C83.56196998 187.25653353 81.03516534 187.25750368 78.50836086 187.2587595 C73.21061432 187.26023519 67.91288519 187.25818063 62.61514187 187.25341892 C56.48312591 187.24797115 50.35114317 187.24974366 44.21912801 187.25524533 C38.32607106 187.26032165 32.43302446 187.25979534 26.53996563 187.25686359 C24.02881395 187.25619421 21.51766143 187.25702314 19.00651073 187.25934315 C15.50575125 187.26186784 12.00505664 187.25803193 8.50430202 187.25244236 C7.45597698 187.25446659 6.40765194 187.25649082 5.32755947 187.25857639 C3.90580158 187.25434666 3.90580158 187.25434666 2.45532131 187.25003147 C1.6268387 187.24965445 0.79835609 187.24927742 -0.05523205 187.24888897 C-1.93466282 187.12304783 -1.93466282 187.12304783 -2.93466282 186.12304783 C-3.03453318 183.73466625 -3.06908689 181.37514618 -3.06164646 178.98620701 C-3.06320645 178.23060096 -3.06476644 177.47499492 -3.06637371 176.69649172 C-3.07038658 174.14529832 -3.06719296 171.59416363 -3.06405735 169.0429697 C-3.06541126 167.22180744 -3.06719114 165.40064545 -3.06936741 163.57948399 C-3.07394292 158.61888367 -3.0721517 153.65830406 -3.06898832 148.69770336 C-3.06646533 143.51848003 -3.06880209 138.33925853 -3.07037449 133.16003513 C-3.07219636 124.46069106 -3.06978941 115.76135546 -3.06503391 107.06201267 C-3.05959126 96.98900056 -3.0613539 86.91600869 -3.06686032 76.84299707 C-3.07139094 68.21118385 -3.07204225 59.57937673 -3.06942165 50.94756269 C-3.06785859 45.78485787 -3.06766588 40.62216257 -3.07095814 35.45945835 C-3.07383612 30.6070056 -3.07186251 25.75457907 -3.06606388 20.90212917 C-3.06473589 19.11583532 -3.06513106 17.32953927 -3.06732655 15.54324627 C-3.07003653 13.11543009 -3.06665881 10.68769931 -3.06164646 8.25988865 C-3.06387718 7.54365818 -3.0661079 6.8274277 -3.06840622 6.08949327 C-3.04459881 0.19364164 -3.04459881 0.19364164 0 0 Z " fill="#4EA964" transform="translate(470.9346628189087,236.87695217132568)"/>
<path d="M0 0 C0 0.66 0 1.32 0 2 C0.99 2.33 1.98 2.66 3 3 C3 3.66 3 4.32 3 5 C3.88171875 5.35771484 3.88171875 5.35771484 4.78125 5.72265625 C12.34833562 10.07905942 15.56117403 20.1197075 18 28 C18.33 28.99 18.66 29.98 19 31 C19.08494728 33.65894107 19.11594796 36.29085377 19.09765625 38.94921875 C19.0962413 39.72183548 19.09482635 40.49445221 19.09336853 41.29048157 C19.08777466 43.75619389 19.07522333 46.22181515 19.0625 48.6875 C19.05748421 50.36002473 19.05292144 52.03255088 19.04882812 53.70507812 C19.03780724 57.80342046 19.02054684 61.90169479 19 66 C19.60585938 66.11988281 20.21171875 66.23976563 20.8359375 66.36328125 C24.20454856 67.35440689 25.76552718 69.35391376 28 72 C30.14034331 76.97502289 30.29112129 81.42612587 30.2746582 86.73999023 C30.27976913 87.59769012 30.28488007 88.45539001 30.29014587 89.33908081 C30.3039976 92.16232361 30.30308851 94.9853211 30.30078125 97.80859375 C30.30467044 99.77865184 30.30900558 101.74870909 30.31376648 103.71876526 C30.32121907 107.84354371 30.32094425 111.96823655 30.31567383 116.09301758 C30.30987877 121.36997344 30.32681582 126.64657836 30.3500185 131.92347622 C30.36477358 135.99076881 30.36562515 140.05797721 30.36250877 144.12529182 C30.36302103 146.07048297 30.36824086 148.01567894 30.37832069 149.96084404 C30.39070294 152.68433103 30.38388287 155.40713854 30.37231445 158.13061523 C30.37995819 158.92823776 30.38760193 159.72586029 30.39547729 160.5476532 C30.34675565 165.7558673 29.44616272 169.37617669 27 174 C21.94141502 178.68844462 18.62537741 179.14212527 11.9296875 179.09765625 C11.13345978 179.0962413 10.33723206 179.09482635 9.51687622 179.09336853 C6.9695462 179.08776345 4.42230353 179.07521014 1.875 179.0625 C0.14974085 179.05748565 -1.57551967 179.05292263 -3.30078125 179.04882812 C-7.53388791 179.03779237 -11.76692914 179.02052436 -16 179 C-17.60557312 172.71118288 -19.18352941 166.44537815 -20.375 160.0625 C-21.24964493 155.50489075 -22.22795022 151.01369688 -23.37109375 146.515625 C-23.60844238 145.57195068 -23.84579102 144.62827637 -24.09033203 143.65600586 C-24.56511281 141.7865766 -25.05144941 139.92003738 -25.55029297 138.05688477 C-25.87537842 136.76995728 -25.87537842 136.76995728 -26.20703125 135.45703125 C-26.4078833 134.69366455 -26.60873535 133.93029785 -26.81567383 133.14379883 C-27.04760354 130.44634879 -26.4915649 129.23571803 -25 127 C-23.00669158 125.65668346 -21.00615134 124.32405988 -19 123 C-14.83568154 118.60433051 -13.23342427 114.567667 -12.6875 108.5625 C-13.19763644 102.74694457 -15.47106127 98.53720694 -19 94 C-19 93.34 -19 92.68 -19 92 C-19.8353125 91.814375 -19.8353125 91.814375 -20.6875 91.625 C-23 91 -23 91 -25.125 89.9375 C-30.30732398 88.24761175 -35.40584252 87.99979489 -40.54296875 89.98046875 C-45.65068727 92.68847612 -48.76768366 95.27593231 -51.1875 100.625 C-52.99476491 108.1321004 -52.49175533 114.15615956 -49 121 C-48.67 121.99 -48.34 122.98 -48 124 C-46.67851173 124.37756808 -45.34164079 124.7018576 -44 125 C-42.31008021 125.9601817 -40.63790712 126.95355934 -39 128 C-39.12117188 128.57105469 -39.24234375 129.14210938 -39.3671875 129.73046875 C-40.36064754 134.53728696 -41.20100816 139.32513028 -41.875 144.1875 C-42.79948002 150.37496469 -44.30825514 156.30144478 -45.984375 162.32421875 C-47.2195794 166.79470853 -48.31012221 171.29380815 -49.38671875 175.8046875 C-50 178 -50 178 -51 179 C-55.8592327 179.31702739 -60.72106472 179.35701805 -65.58959961 179.4050293 C-67.22588326 179.42651471 -68.86205495 179.46050474 -70.49780273 179.50756836 C-86.86962899 179.97429081 -86.86962899 179.97429081 -92.78295898 174.59008789 C-95.83992894 170.59609686 -95.17694204 165.73449181 -95.20874023 160.95800781 C-95.21852402 160.03247101 -95.2283078 159.1069342 -95.23838806 158.15335083 C-95.26833242 155.08662351 -95.2897247 152.01993976 -95.30859375 148.953125 C-95.31516558 147.90548729 -95.3217374 146.85784958 -95.32850838 145.77846527 C-95.36109757 140.23318329 -95.3855497 134.68792049 -95.4050293 129.14257812 C-95.42284445 124.55440316 -95.45766931 119.96684254 -95.50756836 115.37890625 C-95.56776022 109.8381173 -95.5985037 104.29789813 -95.60820198 98.75679779 C-95.61675922 96.64687217 -95.63558387 94.53696187 -95.6649456 92.42722321 C-95.70387762 89.4706647 -95.70489241 86.5163245 -95.69702148 83.55957031 C-95.71702209 82.69177948 -95.73702271 81.82398865 -95.75762939 80.92990112 C-95.69027686 75.28047524 -94.39434487 72.38513553 -90.48330784 68.29282761 C-89 67 -89 67 -87 66 C-86.98541748 65.18958252 -86.97083496 64.37916504 -86.95581055 63.54418945 C-86.893911 60.4704284 -86.81961798 57.39725835 -86.73754883 54.32397461 C-86.68884564 52.36658166 -86.6537988 50.40886388 -86.61914062 48.45117188 C-86.306892 37.29538001 -85.11270462 26.65645419 -79.4375 16.875 C-78.53837891 15.29332031 -78.53837891 15.29332031 -77.62109375 13.6796875 C-76.45891802 11.75859701 -75.24545217 9.86817826 -74 8 C-73.34 8 -72.68 8 -72 8 C-71.77570313 7.4225 -71.55140625 6.845 -71.3203125 6.25 C-66.41047275 -2.11706419 -54.27186954 -7.21077083 -45.25 -9.75 C-28.44874103 -13.56081187 -14.37881811 -8.50308845 0 0 Z M-45 20 C-46.5159375 20.804375 -46.5159375 20.804375 -48.0625 21.625 C-52.72215817 25.3923832 -56.10154826 30.30464478 -58 36 C-58.08378628 38.2838517 -58.10729915 40.570101 -58.09765625 42.85546875 C-58.09515869 44.06614014 -58.09266113 45.27681152 -58.09008789 46.52416992 C-58.08098389 48.06306885 -58.07187988 49.60196777 -58.0625 51.1875 C-58.041875 56.075625 -58.02125 60.96375 -58 66 C-41.5 66 -25 66 -8 66 C-7.87625 59.1009375 -7.87625 59.1009375 -7.75 52.0625 C-7.69537598 49.91439819 -7.69537598 49.91439819 -7.63964844 47.72290039 C-7.56167371 38.70738689 -8.44038772 32.10724494 -14.4375 25.1875 C-15.7059375 24.1046875 -15.7059375 24.1046875 -17 23 C-17.825 22.278125 -18.65 21.55625 -19.5 20.8125 C-27.27789303 15.17352755 -36.78585452 15.49027307 -45 20 Z " fill="#4CA862" transform="translate(269,235)"/>
<path d="M0 0 C15.88955127 -0.02332924 31.77909794 -0.0409793 47.66866207 -0.05181217 C55.04595956 -0.05697508 62.42324643 -0.06401767 69.80053711 -0.07543945 C76.2283218 -0.08538646 82.6560988 -0.09185347 89.08389097 -0.09408849 C92.48939278 -0.09539557 95.89487258 -0.09848125 99.30036736 -0.10573006 C103.09601041 -0.11293606 106.89160712 -0.11399113 110.68725586 -0.11352539 C112.3930481 -0.1189183 112.3930481 -0.1189183 114.13330078 -0.12442017 C115.67515297 -0.12235817 115.67515297 -0.12235817 117.24815369 -0.12025452 C118.14690185 -0.12117631 119.04565001 -0.1220981 119.97163296 -0.12304783 C122 0 122 0 123 1 C123.10095564 3.65456193 123.13970998 6.28255176 123.1328125 8.9375 C123.13376923 9.732771 123.13472595 10.52804199 123.13571167 11.34741211 C123.13639343 13.0320646 123.13453943 14.71671971 123.13037109 16.40136719 C123.12502275 18.98899197 123.13031619 21.57644316 123.13671875 24.1640625 C123.13605797 25.79687539 123.1347768 27.42968816 123.1328125 29.0625 C123.13483673 29.84165771 123.13686096 30.62081543 123.13894653 31.42358398 C123.11495105 36.88504895 123.11495105 36.88504895 122 38 C119.62699131 38.09494733 117.28321297 38.12559319 114.90991211 38.11352539 C114.16849472 38.11367142 113.42707733 38.11381744 112.66319275 38.1139679 C110.20121379 38.11326865 107.73930957 38.10547574 105.27734375 38.09765625 C103.57483461 38.09579211 101.87232493 38.09436819 100.16981506 38.09336853 C95.68006927 38.08954302 91.19035562 38.07971247 86.70062256 38.06866455 C81.31836359 38.05665668 75.9360939 38.05204835 70.55382538 38.04621124 C62.36919454 38.03650072 54.18463428 38.01734441 46 38 C46 50.54 46 63.08 46 76 C65.47 76 84.94 76 105 76 C105 87.88 105 99.76 105 112 C85.53 112 66.06 112 46 112 C46 136.75 46 161.5 46 187 C34.8934375 187.0309375 34.8934375 187.0309375 23.5625 187.0625 C21.2222876 187.071604 18.8820752 187.08070801 16.47094727 187.09008789 C14.62776751 187.09300694 12.78458712 187.09555552 10.94140625 187.09765625 C9.97489136 187.10277222 9.00837646 187.10788818 8.01257324 187.11315918 C7.09907104 187.11328003 6.18556885 187.11340088 5.24438477 187.11352539 C4.44718521 187.115746 3.64998566 187.11796661 2.82862854 187.12025452 C1 187 1 187 0 186 C-0.09766542 183.59671471 -0.12996828 181.22220648 -0.12025452 178.81846619 C-0.12110894 178.05807102 -0.12196337 177.29767586 -0.12284368 176.51423842 C-0.12450078 173.9468875 -0.11897339 171.37960083 -0.11352539 168.81225586 C-0.11324354 166.97961936 -0.11340121 165.14698275 -0.1139679 163.31434631 C-0.11425596 158.32281938 -0.10835777 153.33131625 -0.10139394 148.33979487 C-0.09516191 143.12940894 -0.09455672 137.91902251 -0.09336853 132.70863342 C-0.09025477 122.83468975 -0.08204078 112.96075709 -0.07201904 103.08681828 C-0.06085929 91.84879999 -0.0553478 80.61078119 -0.05032361 69.37275875 C-0.0398582 46.24849971 -0.02225789 23.12425047 0 0 Z " fill="#4CA862" transform="translate(325,237)"/>
<path d="M0 0 C1.17175781 0.83724609 1.17175781 0.83724609 2.3671875 1.69140625 C3.54667969 2.52478516 3.54667969 2.52478516 4.75 3.375 C19.52659444 14.51534784 30.16834482 30.43077804 32.8125 48.96875 C35.17432378 69.63229808 31.90255195 87.29005808 21.2421875 105.25390625 C20.5821875 105.25390625 19.9221875 105.25390625 19.2421875 105.25390625 C19.0153125 105.79015625 18.7884375 106.32640625 18.5546875 106.87890625 C14.83589624 113.60814757 9.36415612 117.80795199 3.2421875 122.25390625 C2.51773438 122.79402344 1.79328125 123.33414063 1.046875 123.890625 C-4.54776826 127.87104324 -10.24927015 130.15208368 -16.7578125 132.25390625 C-17.8303125 132.64578125 -18.9028125 133.03765625 -20.0078125 133.44140625 C-31.79587783 136.92424374 -46.97231484 136.59700971 -58.7578125 133.25390625 C-59.94310547 132.97933594 -59.94310547 132.97933594 -61.15234375 132.69921875 C-71.05421496 130.17307208 -81.33569384 124.33033719 -88.7578125 117.25390625 C-89.0878125 116.26390625 -89.4178125 115.27390625 -89.7578125 114.25390625 C-90.3559375 113.96515625 -90.9540625 113.67640625 -91.5703125 113.37890625 C-94.48127404 111.88184031 -95.89793971 109.91086738 -97.7578125 107.25390625 C-97.7578125 106.59390625 -97.7578125 105.93390625 -97.7578125 105.25390625 C-98.4178125 105.25390625 -99.0778125 105.25390625 -99.7578125 105.25390625 C-111.22725182 93.43900189 -113.34018519 73.1540501 -113.109375 57.58984375 C-112.54798281 44.52686078 -107.38907043 30.80299809 -99.7578125 20.25390625 C-99.29246094 19.60421875 -98.82710938 18.95453125 -98.34765625 18.28515625 C-75.94036794 -12.43174026 -32.00290939 -20.26246529 0 0 Z M-67.1953125 42.87890625 C-73.07732904 51.59300482 -73.18732105 61.1278419 -71.49609375 71.16015625 C-70.81490199 74.01467409 -69.93429004 76.5705362 -68.7578125 79.25390625 C-68.0978125 79.25390625 -67.4378125 79.25390625 -66.7578125 79.25390625 C-66.5103125 79.81078125 -66.2628125 80.36765625 -66.0078125 80.94140625 C-62.06348351 88.23841488 -55.63405775 92.33013548 -47.7890625 94.8984375 C-36.2267047 96.92185011 -28.26146127 94.12783591 -18.62890625 87.87109375 C-13.55016718 84.03187415 -11.1883611 79.02645919 -8.7578125 73.25390625 C-8.3246875 72.26390625 -7.8915625 71.27390625 -7.4453125 70.25390625 C-5.48013407 61.67858219 -7.00757706 55.07697804 -10.7578125 47.25390625 C-11.06589844 46.60679688 -11.37398437 45.9596875 -11.69140625 45.29296875 C-12.35751913 43.93524585 -13.05345392 42.59218755 -13.7578125 41.25390625 C-14.4178125 41.25390625 -15.0778125 41.25390625 -15.7578125 41.25390625 C-16.2528125 39.76890625 -16.2528125 39.76890625 -16.7578125 38.25390625 C-24.13248921 31.93275479 -32.58467498 28.60216483 -42.2890625 28.9765625 C-52.12178631 30.08118812 -60.79725487 35.38811106 -67.1953125 42.87890625 Z " fill="#4DA963" transform="translate(450.7578125,51.74609375)"/>
<path d="M0 0 C10.97888554 -0.11592194 21.95762515 -0.20472981 32.93699837 -0.25906086 C38.03536747 -0.28513905 43.13331743 -0.32050487 48.23144531 -0.37719727 C53.15276068 -0.43158011 58.07367326 -0.46143391 62.99526596 -0.47438622 C64.87156387 -0.48361482 66.74784008 -0.50163646 68.62396622 -0.52865028 C71.25516396 -0.56502461 73.88470399 -0.56994194 76.51611328 -0.56762695 C77.2893544 -0.58560333 78.06259552 -0.60357971 78.85926819 -0.62210083 C82.80638319 -0.58460031 85.415056 -0.06911505 88.48043823 2.35188293 C91.4397541 5.46219162 91.81478432 6.76742469 91.75 11 C91.49749121 16.26383699 91.49749121 16.26383699 89.74609375 18.85546875 C84.99573899 22.91529575 80.44802379 23.14614421 74.51513672 23.12939453 C73.75552643 23.13114685 72.99591614 23.13289917 72.21328735 23.13470459 C69.70206418 23.13910669 67.19091139 23.13619147 64.6796875 23.1328125 C62.93759141 23.13348587 61.19549542 23.13445617 59.45339966 23.13571167 C55.80339666 23.1371863 52.15341813 23.13504108 48.50341797 23.13037109 C43.81442767 23.12466549 39.12549449 23.12795955 34.43650627 23.13394356 C30.84041916 23.13754829 27.24434572 23.13641114 23.64825821 23.13381577 C21.91861082 23.13314669 20.18896221 23.13397425 18.45931625 23.13629532 C16.04820187 23.13882132 13.63718156 23.13498241 11.22607422 23.12939453 C10.50502502 23.13141876 9.78397583 23.13344299 9.04107666 23.13552856 C4.11426448 23.11426448 4.11426448 23.11426448 3 22 C2.43167005 19.0641194 1.91519378 16.13823045 1.4375 13.1875 C1.29892578 12.36701172 1.16035156 11.54652344 1.01757812 10.70117188 C0.41441051 7.03759715 0 3.73493388 0 0 Z " fill="#4DA863" transform="translate(494,89)"/>
<path d="M0 0 C7.60622012 -0.06959844 15.2124071 -0.12286116 22.81887341 -0.15543652 C26.35112466 -0.17107343 29.88315759 -0.19227501 33.4152832 -0.22631836 C37.47869937 -0.26523603 41.54188721 -0.27972547 45.60546875 -0.29296875 C46.8702153 -0.30845261 48.13496185 -0.32393646 49.43803406 -0.33988953 C50.61888077 -0.34011612 51.79972748 -0.34034271 53.01635742 -0.34057617 C54.05338303 -0.34723801 55.09040863 -0.35389984 56.15885925 -0.36076355 C60.24506748 0.1580967 62.86933864 1.86933864 65.75 4.75 C67.47961418 7.86330552 67.81350821 10.45665591 68 14 C67.0625 16.9375 67.0625 16.9375 66 19 C65.34 19 64.68 19 64 19 C64 19.66 64 20.32 64 21 C60.41483972 23.39010685 58.85733033 23.24326602 54.60083008 23.22705078 C53.95665634 23.22734283 53.3124826 23.22763489 52.64878845 23.22793579 C50.52223177 23.22654384 48.39602663 23.21098938 46.26953125 23.1953125 C44.79408459 23.19158188 43.31863545 23.18873514 41.84318542 23.18673706 C37.96169178 23.17910442 34.08034804 23.15945917 30.19891357 23.1373291 C26.23744739 23.11686269 22.27595695 23.10773365 18.31445312 23.09765625 C10.54290044 23.07621286 2.77147123 23.04208145 -5 23 C-4.48810759 19.22554038 -3.97314275 15.50807333 -3.02734375 11.81640625 C-2.85009766 11.11708984 -2.67285156 10.41777344 -2.49023438 9.69726562 C-2.21663086 8.64055664 -2.21663086 8.64055664 -1.9375 7.5625 C-1.75123047 6.83095703 -1.56496094 6.09941406 -1.37304688 5.34570312 C-0.9186242 3.56296802 -0.45977534 1.78136213 0 0 Z " fill="#4DA863" transform="translate(497,122)"/>
<path d="M0 0 C3.18655098 0.0968134 6.36367488 0.10259182 9.55151367 0.0949707 C11.5886965 0.12021035 13.62582307 0.15063464 15.6628418 0.18676758 C16.60781021 0.19030746 17.55277863 0.19384735 18.52638245 0.19749451 C24.40263764 0.4277316 27.60954706 1.57558549 31.86668396 5.68580627 C34.70255364 8.99982854 34.41556717 11.91316983 34.12768555 16.15942383 C32.303241 20.38445331 30.20644953 22.13639678 26.12768555 24.15942383 C23.13468933 24.52018738 23.13468933 24.52018738 19.77685547 24.5 C17.88546089 24.49966011 17.88546089 24.49966011 15.95585632 24.49931335 C14.58995199 24.48399585 13.22405133 24.4683479 11.8581543 24.45239258 C10.45282953 24.44679295 9.04749887 24.44252458 7.64216614 24.43952942 C3.95459649 24.42810938 0.26738486 24.39866724 -3.42004395 24.36541748 C-7.18728798 24.33465494 -10.95459022 24.32101092 -14.72192383 24.3059082 C-22.10555007 24.27379431 -29.48888198 24.22263299 -36.87231445 24.15942383 C-35.03331092 20.33779088 -32.78595303 17.6953089 -29.87988281 14.62207031 C-27.77154405 12.23861747 -27.77154405 12.23861747 -26.5546875 9.35717773 C-20.87309883 -1.78528274 -11.05886416 -0.35122426 0 0 Z " fill="#4CA862" transform="translate(505.872314453125,154.840576171875)"/>
<path d="M0 0 C7.3453458 -0.11601154 14.69049309 -0.20477378 22.03657055 -0.25906086 C25.44796874 -0.2851206 28.85873874 -0.3204489 32.26977539 -0.37719727 C36.19409584 -0.44207403 40.11816474 -0.4662107 44.04296875 -0.48828125 C45.26396774 -0.51408768 46.48496674 -0.5398941 47.7429657 -0.56648254 C56.22617494 -0.56929085 56.22617494 -0.56929085 60.18481445 2.34301758 C63.3906489 7.03556583 64.59882339 9.2113739 64 15 C62.125 17.9375 62.125 17.9375 60 20 C59.34 20 58.68 20 58 20 C58 20.66 58 21.32 58 22 C55.69179492 23.15410254 54.39215724 23.1210297 51.82568359 23.11352539 C50.53457169 23.11341209 50.53457169 23.11341209 49.21737671 23.11329651 C48.28712677 23.10813522 47.35687683 23.10297394 46.3984375 23.09765625 C45.44683746 23.0962413 44.49523743 23.09482635 43.51480103 23.09336853 C40.46816903 23.08776012 37.42160987 23.07520619 34.375 23.0625 C32.31250106 23.05748608 30.25000097 23.05292299 28.1875 23.04882812 C23.12497183 23.03778796 18.06249827 23.02051767 13 23 C12.32638428 21.37336426 12.32638428 21.37336426 11.63916016 19.71386719 C10.54066216 17.1532549 9.41652557 14.84100707 7.7734375 12.578125 C7.3815625 12.02769531 6.9896875 11.47726563 6.5859375 10.91015625 C6.18632812 10.36230469 5.78671875 9.81445312 5.375 9.25 C1.12353229 3.37059687 1.12353229 3.37059687 0 0 Z " fill="#4EA863" transform="translate(476,57)"/>
<path d="M0 0 C20.109375 -0.020625 40.21875 -0.04125 60.9375 -0.0625 C67.29765381 -0.071604 73.65780762 -0.08070801 80.21069336 -0.09008789 C87.95031738 -0.09460449 87.95031738 -0.09460449 91.56837463 -0.09544373 C94.1066658 -0.09698385 96.64495622 -0.10051017 99.1832428 -0.10557556 C103.01792684 -0.11284845 106.852566 -0.11390757 110.68725586 -0.11352539 C111.82659797 -0.1171235 112.96594007 -0.12072161 114.1398077 -0.12442875 C115.16556188 -0.12305125 116.19131605 -0.12167376 117.24815369 -0.12025452 C118.14690185 -0.12117631 119.04565001 -0.1220981 119.97163296 -0.12304783 C122 0 122 0 123 1 C123.10095564 3.65456193 123.13970998 6.28255176 123.1328125 8.9375 C123.13376923 9.732771 123.13472595 10.52804199 123.13571167 11.34741211 C123.13639343 13.0320646 123.13453943 14.71671971 123.13037109 16.40136719 C123.12502275 18.98899197 123.13031619 21.57644316 123.13671875 24.1640625 C123.13605797 25.79687539 123.1347768 27.42968816 123.1328125 29.0625 C123.13483673 29.84165771 123.13686096 30.62081543 123.13894653 31.42358398 C123.11495105 36.88504895 123.11495105 36.88504895 122 38 C119.62699131 38.09494733 117.28321297 38.12559319 114.90991211 38.11352539 C114.16849472 38.11367142 113.42707733 38.11381744 112.66319275 38.1139679 C110.20121379 38.11326865 107.73930957 38.10547574 105.27734375 38.09765625 C103.57483461 38.09579211 101.87232493 38.09436819 100.16981506 38.09336853 C95.68006927 38.08954302 91.19035562 38.07971247 86.70062256 38.06866455 C81.31836359 38.05665668 75.9360939 38.05204835 70.55382538 38.04621124 C62.36919454 38.03650072 54.18463428 38.01734441 46 38 C46 50.54 46 63.08 46 76 C45.67 76 45.34 76 45 76 C44.67 63.46 44.34 50.92 44 38 C44.99 37.67 45.98 37.34 47 37 C47.495 36.01 47.495 36.01 48 35 C72.09 35.33 96.18 35.66 121 36 C121 25.11 121 14.22 121 3 C119.35 3 117.7 3 116 3 C116 2.34 116 1.68 116 1 C114.22619965 1.10277504 114.22619965 1.10277504 112.41656494 1.20762634 C99.43639365 1.92695806 86.48244738 2.20602053 73.484375 2.31640625 C71.63817994 2.33488449 69.79198847 2.3537246 67.94580078 2.3729248 C61.21390944 2.44046746 54.48195012 2.50109385 47.75 2.5625 C32.6525 2.706875 17.555 2.85125 2 3 C2.33 63.72 2.66 124.44 3 187 C2.01 186.67 1.02 186.34 0 186 C0 124.62 0 63.24 0 0 Z " fill="#8CC299" transform="translate(325,237)"/>
<path d="M0 0 C1.08864349 0.00539291 1.08864349 0.00539291 2.19927979 0.01089478 C2.96020432 0.01074875 3.72112885 0.01060272 4.50511169 0.01045227 C7.03202113 0.01115155 9.55885776 0.01894462 12.08575439 0.02676392 C13.83310404 0.02862804 15.58045421 0.03005197 17.32780457 0.03105164 C21.93591749 0.03487724 26.54399909 0.04470788 31.15209961 0.05575562 C35.85068335 0.06596883 40.54927214 0.07054906 45.24786377 0.07559204 C54.47378902 0.08633011 63.69969098 0.10340704 72.92559814 0.12442017 C69.25906736 2.44358884 66.13799365 2.36642155 61.86212158 2.35147095 C60.8078598 2.35190903 60.8078598 2.35190903 59.7322998 2.35235596 C57.41639731 2.35096609 55.10081923 2.33542129 52.78497314 2.31973267 C51.17643408 2.31600131 49.56789274 2.31315492 47.95935059 2.31115723 C43.73099464 2.3035304 39.50277664 2.2838901 35.2744751 2.26174927 C30.95768093 2.24127035 26.64086442 2.23215114 22.32403564 2.22207642 C13.85781953 2.20064327 5.3917419 2.1654689 -3.07440186 2.12442017 C-3.40440186 12.35442017 -3.73440186 22.58442017 -4.07440186 33.12442017 C-0.11569092 33.1128186 3.84302002 33.10121704 7.92169189 33.08926392 C11.73752767 33.08147484 15.55336257 33.07539723 19.36920166 33.06948853 C22.03001296 33.06444634 24.69082146 33.05761281 27.35162354 33.04898071 C31.1666533 33.03691008 34.98164658 33.03119087 38.79669189 33.02676392 C40.59353676 33.01902199 40.59353676 33.01902199 42.42668152 33.01112366 C44.07828026 33.01101036 44.07828026 33.01101036 45.76324463 33.01089478 C47.22551735 33.00756386 47.22551735 33.00756386 48.71733093 33.00416565 C50.92559814 33.12442017 50.92559814 33.12442017 51.92559814 34.12442017 C52.23809814 37.43692017 52.23809814 37.43692017 51.92559814 41.12442017 C50.6135941 42.47874692 49.27928411 43.81175499 47.92559814 45.12442017 C47.11793936 48.77163712 47.11793936 48.77163712 46.92559814 52.12442017 C45.60559814 52.12442017 44.28559814 52.12442017 42.92559814 52.12442017 C42.67809814 52.70192017 42.43059814 53.27942017 42.17559814 53.87442017 C40.68735031 56.55326627 39.35296181 58.23647065 36.92559814 60.12442017 C33.67559814 60.37442017 33.67559814 60.37442017 30.92559814 60.12442017 C31.92559814 58.12442017 31.92559814 58.12442017 34.23809814 56.81192017 C37.20188109 54.95094018 38.78478582 52.85580141 40.92559814 50.12442017 C41.58559814 50.12442017 42.24559814 50.12442017 42.92559814 50.12442017 C43.17309814 49.48504517 43.42059814 48.84567017 43.67559814 48.18692017 C45.33273576 44.12693302 47.14461726 40.13162715 48.92559814 36.12442017 C31.10559814 35.79442017 13.28559814 35.46442017 -5.07440186 35.12442017 C-6.5480049 32.17721407 -6.21673781 29.19406649 -6.20721436 25.96426392 C-6.20817108 25.25919205 -6.20912781 24.55412018 -6.21011353 23.8276825 C-6.21079415 22.33732006 -6.20894807 20.84695465 -6.20477295 19.3565979 C-6.19941503 17.06754959 -6.20472595 14.77869679 -6.21112061 12.48965454 C-6.21045996 11.04369056 -6.20917908 9.59772671 -6.20721436 8.15176392 C-6.20923859 7.46323837 -6.21126282 6.77471283 -6.21334839 6.06532288 C-6.1843495 0.23149607 -5.81405324 0.0121524 0 0 Z " fill="#9BBEA3" transform="translate(246.07440185546875,80.87557983398438)"/>
<path d="M0 0 C1.65 0 3.3 0 5 0 C4.67 0.99 4.34 1.98 4 3 C3.34 3 2.68 3 2 3 C2.33 63.72 2.66 124.44 3 187 C2.01 186.67 1.02 186.34 0 186 C0 124.62 0 63.24 0 0 Z " fill="#69A97B" transform="translate(325,237)"/>
<path d="M0 0 C1.87016846 0.11002739 3.74329531 0.17517946 5.61645508 0.20532227 C7.26760063 0.2352401 7.26760063 0.2352401 8.95210266 0.26576233 C10.1293541 0.28247482 11.30660553 0.29918732 12.51953125 0.31640625 C13.73323898 0.33718735 14.94694672 0.35796844 16.19743347 0.37937927 C20.06906551 0.44468916 23.94076455 0.50367363 27.8125 0.5625 C30.43946002 0.60570285 33.06641329 0.64931771 35.69335938 0.69335938 C42.12883571 0.80035158 48.56437849 0.90215236 55 1 C55 1.33 55 1.66 55 2 C34.54 2 14.08 2 -7 2 C-7 14.87 -7 27.74 -7 41 C16.1 41 39.2 41 63 41 C63 46.28 63 51.56 63 57 C62.01 57.495 62.01 57.495 61 58 C61 52.72 61 47.44 61 42 C57.87253296 42.00785522 57.87253296 42.00785522 54.68188477 42.01586914 C47.8087162 42.03240656 40.93554678 42.04347183 34.06236362 42.05181217 C29.89337172 42.05704051 25.72440013 42.06413726 21.55541992 42.07543945 C17.53542314 42.08627008 13.51544595 42.09227721 9.49543571 42.09487724 C7.95837025 42.09673118 6.42130591 42.10035119 4.88424873 42.10573006 C2.73864513 42.11294284 0.59312345 42.11399084 -1.55249023 42.11352539 C-2.77604721 42.115746 -3.99960419 42.11796661 -5.26023865 42.12025452 C-8 42 -8 42 -9 41 C-9.13832113 38.15077553 -9.21316519 35.32753453 -9.23828125 32.4765625 C-9.246353 31.61944672 -9.25442474 30.76233093 -9.26274109 29.87924194 C-9.27659735 28.06176791 -9.28731258 26.24426769 -9.29516602 24.42675781 C-9.31238629 21.64338016 -9.35625807 18.86118778 -9.40039062 16.078125 C-9.41051643 14.31511293 -9.41903289 12.55209073 -9.42578125 10.7890625 C-9.44328934 9.95460602 -9.46079742 9.12014954 -9.47883606 8.26040649 C-9.45739589 2.56352007 -9.45739589 2.56352007 -7.28588867 -0.11181641 C-4.39814277 -1.23385203 -3.00770669 -0.63120796 0 0 Z " fill="#74B280" transform="translate(522,345)"/>
<path d="M0 0 C0.33 0 0.66 0 1 0 C1.167247 4.823616 1.32784308 9.64738911 1.48217773 14.47143555 C1.53566959 16.11374934 1.59100431 17.75600416 1.64819336 19.39819336 C1.72990479 21.75361406 1.80506639 24.10916482 1.87890625 26.46484375 C1.90594131 27.20339096 1.93297638 27.94193817 1.96083069 28.7028656 C2.0129438 30.46785616 2.0118612 32.2342801 2 34 C0.32664004 35.67335996 -1.71387909 35.11962895 -3.94747925 35.12442017 C-4.6545401 35.12082489 -5.36160095 35.11722961 -6.09008789 35.11352539 C-6.83150528 35.11367142 -7.57292267 35.11381744 -8.33680725 35.1139679 C-10.79878621 35.11326865 -13.26069043 35.10547574 -15.72265625 35.09765625 C-17.42516539 35.09579211 -19.12767507 35.09436819 -20.83018494 35.09336853 C-25.31993073 35.08954302 -29.80964438 35.07971247 -34.29937744 35.06866455 C-39.68163641 35.05665668 -45.0639061 35.05204835 -50.44617462 35.04621124 C-58.63080546 35.03650072 -66.81536572 35.01734441 -75 35 C-75 47.54 -75 60.08 -75 73 C-75.33 73 -75.66 73 -76 73 C-76.33 60.46 -76.66 47.92 -77 35 C-75.515 34.505 -75.515 34.505 -74 34 C-73.67 33.34 -73.34 32.68 -73 32 C-48.91 32.33 -24.82 32.66 0 33 C0 22.11 0 11.22 0 0 Z " fill="#7BB289" transform="translate(446,240)"/>
<path d="M0 0 C3.96297521 3.96297521 3.15377851 9.20481951 3.16113281 14.51293945 C3.16609772 15.37034729 3.17106262 16.22775513 3.17617798 17.11114502 C3.19077239 19.94519862 3.19759709 22.77919625 3.203125 25.61328125 C3.20887871 27.58619691 3.21463641 29.55911256 3.22039795 31.5320282 C3.2309002 35.66873434 3.23674794 39.80542108 3.24023438 43.94213867 C3.24571734 49.23482247 3.26974449 54.52724879 3.29820633 59.81985188 C3.31685813 63.89571372 3.32203967 67.97151386 3.32357025 72.04741478 C3.32659158 73.99819534 3.33460251 75.94897495 3.34775543 77.89971352 C3.36486897 80.63296559 3.36292274 83.36559258 3.35644531 86.09887695 C3.3656601 86.89964157 3.37487488 87.70040619 3.3843689 88.5254364 C3.34580877 93.7370501 2.49979506 97.39336505 0 102 C-1.485 102.99 -1.485 102.99 -3 104 C-3 100 -3 100 -1.52254772 98.50270367 C-1.02010697 98.00681146 -0.51766623 97.51091925 0 97 C0.4395809 95.08278502 0.4395809 95.08278502 0.36076355 92.95674133 C0.36694954 91.72629593 0.36694954 91.72629593 0.3732605 90.47099304 C0.36247467 89.57475723 0.35168884 88.67852142 0.34057617 87.75512695 C0.34123329 86.33532532 0.34123329 86.33532532 0.34190369 84.88684082 C0.33981129 81.75377883 0.31645873 78.62124992 0.29296875 75.48828125 C0.28737441 73.31780795 0.28310355 71.14733086 0.28010559 68.97685242 C0.26864413 63.26062586 0.23916561 57.54462752 0.20599365 51.82849121 C0.17532088 45.99702034 0.16160622 40.16551264 0.14648438 34.33398438 C0.11429728 22.88922258 0.06308511 11.44463026 0 0 Z " fill="#6F9C7B" transform="translate(296,307)"/>
<path d="M0 0 C0.33 0 0.66 0 1 0 C1.33 2.64 1.66 5.28 2 8 C2.91410645 7.83628906 3.82821289 7.67257813 4.77001953 7.50390625 C10.05924009 6.75343221 15.34879156 6.89615072 20.6796875 6.9375 C21.8058548 6.94128662 22.93202209 6.94507324 24.09231567 6.94897461 C28.88092658 6.9651905 33.66944986 6.99309988 38.45800781 7.02050781 C61.05490062 8.91187072 61.05490062 8.91187072 82 4 C84.1875 4.375 84.1875 4.375 86 5 C80.73784878 9.4088294 77.22895982 10.14834895 70.51513672 10.12939453 C69.37572128 10.13202301 69.37572128 10.13202301 68.21328735 10.13470459 C65.70206418 10.13910669 63.19091139 10.13619147 60.6796875 10.1328125 C58.93759141 10.13348587 57.19549542 10.13445617 55.45339966 10.13571167 C51.80339666 10.1371863 48.15341813 10.13504108 44.50341797 10.13037109 C39.81442767 10.12466549 35.12549449 10.12795955 30.43650627 10.13394356 C26.84041916 10.13754829 23.24434572 10.13641114 19.64825821 10.13381577 C17.91861082 10.13314669 16.18896221 10.13397425 14.45931625 10.13629532 C12.04820187 10.13882132 9.63718156 10.13498241 7.22607422 10.12939453 C6.50502502 10.13141876 5.78397583 10.13344299 5.04107666 10.13552856 C0.11426448 10.11426448 0.11426448 10.11426448 -1 9 C-1.23728814 2.47457627 -1.23728814 2.47457627 0 0 Z " fill="#88BB96" transform="translate(498,102)"/>
<path d="M0 0 C0.65071472 0.00610291 1.30142944 0.01220581 1.97186279 0.01849365 C4.12163338 0.04266011 6.27029793 0.08882644 8.41967773 0.13598633 C9.91273961 0.15894875 11.40581814 0.18085105 12.89891052 0.20173645 C16.02709539 0.24878624 19.15485871 0.30629072 22.28271484 0.37158203 C26.2965935 0.45486935 30.31042855 0.51592764 34.32479954 0.56966686 C37.40722738 0.61273317 40.4894226 0.66564839 43.57163811 0.72176552 C45.05200778 0.7478835 46.53242652 0.77135625 48.01288033 0.79216576 C50.07922846 0.8230629 52.14490898 0.86674006 54.2109375 0.9140625 C55.97607445 0.94762093 55.97607445 0.94762093 57.77687073 0.9818573 C60.54077148 1.28051758 60.54077148 1.28051758 62.54077148 3.28051758 C39.44077148 3.28051758 16.34077148 3.28051758 -7.45922852 3.28051758 C-7.45922852 13.84051758 -7.45922852 24.40051758 -7.45922852 35.28051758 C-7.78922852 35.28051758 -8.11922852 35.28051758 -8.45922852 35.28051758 C-8.60230763 31.20542664 -8.74470556 27.13031252 -8.88647461 23.05517578 C-8.93479022 21.66910154 -8.98329137 20.28303376 -9.03198242 18.89697266 C-9.10197037 16.90374433 -9.17123395 14.91049062 -9.24047852 12.91723633 C-9.28237305 11.71800537 -9.32426758 10.51877441 -9.36743164 9.28320312 C-9.54686227 3.4140082 -9.54686227 3.4140082 -8.3629303 1.61054993 C-5.56155015 -0.34665065 -3.39302346 -0.05300171 0 0 Z " fill="#7CB18A" transform="translate(522.459228515625,271.719482421875)"/>
<path d="M0 0 C0.6703125 0.42796875 1.340625 0.8559375 2.03125 1.296875 C2.5159375 1.61140625 3.000625 1.9259375 3.5 2.25 C2.84 3.24 2.18 4.23 1.5 5.25 C1.5 4.59 1.5 3.93 1.5 3.25 C0.87351562 3.04503906 0.24703125 2.84007812 -0.3984375 2.62890625 C-1.21570313 2.35949219 -2.03296875 2.09007812 -2.875 1.8125 C-3.68710937 1.54566406 -4.49921875 1.27882813 -5.3359375 1.00390625 C-7.5 0.25 -7.5 0.25 -9.5 -0.75 C-9.5 -1.74 -9.5 -2.73 -9.5 -3.75 C-10.34304688 -3.8840625 -11.18609375 -4.018125 -12.0546875 -4.15625 C-15.60123694 -4.76744673 -19.10740799 -5.4902609 -22.625 -6.25 C-24.42324219 -6.63671875 -24.42324219 -6.63671875 -26.2578125 -7.03125 C-27.99075781 -7.41542101 -29.72245185 -7.8112227 -31.43383789 -8.28222656 C-35.18270178 -9.13095907 -38.98407694 -8.97653074 -42.8125 -9 C-43.64201172 -9.020625 -44.47152344 -9.04125 -45.32617188 -9.0625 C-50.82261132 -9.09720522 -54.44307697 -8.07072407 -59.5 -5.75 C-63.02734375 -5.23828125 -63.02734375 -5.23828125 -66.4375 -5.0625 C-67.58089844 -4.99675781 -68.72429687 -4.93101563 -69.90234375 -4.86328125 C-71.18818359 -4.80720703 -71.18818359 -4.80720703 -72.5 -4.75 C-51.43347287 -18.79435142 -20.009549 -12.8632815 0 0 Z " fill="#76AF84" transform="translate(452.5,52.75)"/>
<path d="M0 0 C1.82004109 2.73006163 2.44382814 4.15769598 3.125 7.25 C3.37636719 8.34054687 3.37636719 8.34054687 3.6328125 9.453125 C4.08724981 12.60517952 4 15.81535544 4 19 C-14.81 19 -33.62 19 -53 19 C-54.32 14.71 -55.64 10.42 -57 6 C-56.01 6 -55.02 6 -54 6 C-54 7.65 -54 9.3 -54 11 C-53.01 11.33 -52.02 11.66 -51 12 C-51 13.65 -51 15.3 -51 17 C-33.51 17 -16.02 17 2 17 C1.34 11.39 0.68 5.78 0 0 Z " fill="#71A680" transform="translate(151,254)"/>
<path d="M0 0 C1.08864349 0.00539291 1.08864349 0.00539291 2.19927979 0.01089478 C2.96020432 0.01074875 3.72112885 0.01060272 4.50511169 0.01045227 C7.03202113 0.01115155 9.55885776 0.01894462 12.08575439 0.02676392 C13.83310404 0.02862804 15.58045421 0.03005197 17.32780457 0.03105164 C21.93591749 0.03487724 26.54399909 0.04470788 31.15209961 0.05575562 C35.85068335 0.06596883 40.54927214 0.07054906 45.24786377 0.07559204 C54.47378902 0.08633011 63.69969098 0.10340704 72.92559814 0.12442017 C69.25906736 2.44358884 66.13799365 2.36642155 61.86212158 2.35147095 C60.8078598 2.35190903 60.8078598 2.35190903 59.7322998 2.35235596 C57.41639731 2.35096609 55.10081923 2.33542129 52.78497314 2.31973267 C51.17643408 2.31600131 49.56789274 2.31315492 47.95935059 2.31115723 C43.73099464 2.3035304 39.50277664 2.2838901 35.2744751 2.26174927 C30.95768093 2.24127035 26.64086442 2.23215114 22.32403564 2.22207642 C13.85782659 2.20064329 5.39172954 2.16651885 -3.07440186 2.12442017 C-3.07440186 4.76442017 -3.07440186 7.40442017 -3.07440186 10.12442017 C-3.40440186 10.12442017 -3.73440186 10.12442017 -4.07440186 10.12442017 C-4.40440186 17.71442017 -4.73440186 25.30442017 -5.07440186 33.12442017 C-5.40440186 33.12442017 -5.73440186 33.12442017 -6.07440186 33.12442017 C-6.09905578 28.58544312 -6.11723974 24.04650474 -6.1293335 19.50747681 C-6.13437325 17.96222251 -6.14120505 16.416973 -6.14984131 14.87173462 C-6.16192262 12.65516988 -6.16763358 10.43866798 -6.17205811 8.22207642 C-6.17721939 7.52727676 -6.18238068 6.83247711 -6.18769836 6.11662292 C-6.18789462 4.45212687 -6.13629314 2.78776518 -6.07440186 1.12442017 C-4.37771979 -0.5722619 -2.26308167 0.00473024 0 0 Z " fill="#A0C9AB" transform="translate(246.07440185546875,80.87557983398438)"/>
<path d="M0 0 C0.33 0 0.66 0 1 0 C1 8.58 1 17.16 1 26 C-18.14 26 -37.28 26 -57 26 C-57 25.34 -57 24.68 -57 24 C-38.52 23.67 -20.04 23.34 -1 23 C-0.67 15.41 -0.34 7.82 0 0 Z " fill="#569868" transform="translate(429,323)"/>
<path d="M0 0 C0.33 0 0.66 0 1 0 C1.02687279 1.81242052 1.04633715 3.62495233 1.0625 5.4375 C1.07410156 6.44683594 1.08570313 7.45617187 1.09765625 8.49609375 C1 11 1 11 0 12 C-0.09969841 13.74765452 -0.12968045 15.4995103 -0.125 17.25 C-0.12757813 18.20390625 -0.13015625 19.1578125 -0.1328125 20.140625 C-0.00606859 22.86934681 0.4390598 25.33330811 1 28 C1 30 1 32 1 34 C1.33 34.66 1.66 35.32 2 36 C2.13415472 38.6723621 2.04318541 41.32250488 2 44 C2.99 44.33 3.98 44.66 5 45 C5.66 48.96 6.32 52.92 7 57 C3.81312143 54.87541429 3.53745869 54.48629246 2.4296875 51.078125 C2.17316406 50.29953125 1.91664063 49.5209375 1.65234375 48.71875 C1.39582031 47.9040625 1.13929688 47.089375 0.875 46.25 C0.47861328 45.05117187 0.47861328 45.05117187 0.07421875 43.828125 C-4.3719009 30.10609074 -5.25196785 13.63010704 0 0 Z " fill="#72B082" transform="translate(341,93)"/>
<path d="M0 0 C0.33 0 0.66 0 1 0 C1 1.65 1 3.3 1 5 C0.34 5 -0.32 5 -1 5 C-1.144375 6.134375 -1.28875 7.26875 -1.4375 8.4375 C-2 12 -2 12 -3 13 C-4.43981024 21.40595095 -4.34023739 29.96508499 -4.55224609 38.47119141 C-4.60388016 40.48870945 -4.66122453 42.50607884 -4.71875 44.5234375 C-4.76418945 46.316604 -4.76418945 46.316604 -4.81054688 48.14599609 C-5 51 -5 51 -6 53 C-6.66 53 -7.32 53 -8 53 C-8.33 53.99 -8.66 54.98 -9 56 C-10.875 58.1875 -10.875 58.1875 -13 60 C-13.99 60 -14.98 60 -16 60 C-14.94900081 56.32150282 -14.33230674 55.19665392 -10.95703125 53.19921875 C-8.52724838 51.23487656 -8.03928415 50.21367923 -7.46484375 47.08911133 C-7.2893319 43.38325176 -7.26589527 39.70973678 -7.3125 36 C-7.3590804 23.0772648 -6.49121933 11.41559262 0 0 Z " fill="#81B18E" transform="translate(190,251)"/>
<path d="M0 0 C6.4226219 -0.15260511 12.84477346 -0.25740438 19.26879883 -0.32958984 C21.45224478 -0.35969295 23.6355705 -0.4005857 25.81860352 -0.45263672 C28.96400665 -0.52573563 32.1078063 -0.55952167 35.25390625 -0.5859375 C36.2239711 -0.61690521 37.19403595 -0.64787292 38.1934967 -0.67977905 C44.20816303 -0.68274047 47.40722147 0.27329758 51.74888611 4.51278687 C54.55769272 7.85164684 54.28853285 10.74414048 54 15 C52.625 17.9375 52.625 17.9375 51 20 C50.34 20 49.68 20 49 20 C49.33 18.68 49.66 17.36 50 16 C50.66 16 51.32 16 52 16 C51.69078116 14.54096742 51.37751201 13.08279278 51.0625 11.625 C50.88847656 10.81289062 50.71445312 10.00078125 50.53515625 9.1640625 C50.07669307 6.970537 50.07669307 6.970537 49 5 C44.90410158 2.84076221 40.95910264 2.67665429 36.42578125 2.62109375 C35.7019072 2.60409927 34.97803314 2.5871048 34.23222351 2.56959534 C31.92573707 2.5167265 29.61926139 2.47636037 27.3125 2.4375 C24.28763424 2.37890463 21.26293561 2.31471984 18.23828125 2.24609375 C17.51641632 2.23017181 16.79455139 2.21424988 16.05081177 2.19784546 C10.65442084 2.06080783 5.35718854 1.64628097 0 1 C0 0.67 0 0.34 0 0 Z " fill="#68A673" transform="translate(486,156)"/>
<path d="M0 0 C0.66 0 1.32 0 2 0 C1.99777939 1.09723389 1.99555878 2.19446777 1.99327087 3.32495117 C1.97296906 13.68262358 1.95799397 24.04029192 1.94818783 34.39797974 C1.94297688 39.72252229 1.93591175 45.04704874 1.92456055 50.37158203 C1.91366807 55.51331744 1.90770969 60.65503739 1.90512276 65.79678345 C1.90327996 67.75509891 1.89968148 69.71341356 1.89426994 71.67172241 C1.88697506 74.42179165 1.88601261 77.17179759 1.88647461 79.921875 C1.88287933 80.72532852 1.87928406 81.52878204 1.87557983 82.35658264 C1.88456437 87.32285748 2.2939201 92.08281785 3 97 C4.32 97 5.64 97 7 97 C7.66 98.65 8.32 100.3 9 102 C5.6470016 100.82191948 3.2447471 99.80593388 1 97 C-0.3298361 93.01049171 -0.13074673 89.18910944 -0.11352539 85.03051758 C-0.11367142 84.11324387 -0.11381744 83.19597015 -0.1139679 82.25090027 C-0.11327057 79.21541997 -0.10548656 76.18000084 -0.09765625 73.14453125 C-0.09579143 71.04131606 -0.09436783 68.93810043 -0.09336853 66.83488464 C-0.08954839 61.29630334 -0.07972237 55.7577482 -0.06866455 50.21917725 C-0.05843964 44.56864781 -0.05386859 38.91811415 -0.04882812 33.26757812 C-0.03809968 22.17837391 -0.02102926 11.08918913 0 0 Z " fill="#599E69" transform="translate(174,311)"/>
<path d="M0 0 C0.87398438 0.04543945 0.87398438 0.04543945 1.765625 0.09179688 C22.95506975 1.71088988 22.95506975 1.71088988 44 0 C44.495 1.485 44.495 1.485 45 3 C42.69179492 4.15410254 41.39215724 4.1210297 38.82568359 4.11352539 C37.53457169 4.11341209 37.53457169 4.11341209 36.21737671 4.11329651 C35.28712677 4.10813522 34.35687683 4.10297394 33.3984375 4.09765625 C32.44683746 4.0962413 31.49523743 4.09482635 30.51480103 4.09336853 C27.46816903 4.08776012 24.42160987 4.07520619 21.375 4.0625 C19.31250106 4.05748608 17.25000097 4.05292299 15.1875 4.04882812 C10.12497183 4.03778796 5.06249827 4.02051767 0 4 C0 2.68 0 1.36 0 0 Z " fill="#82BC8F" transform="translate(489,76)"/>
<path d="M0 0 C18.48 0 36.96 0 56 0 C55.67 2.31 55.34 4.62 55 7 C54.67 7 54.34 7 54 7 C54 5.35 54 3.7 54 2 C36.18 2 18.36 2 0 2 C0 1.34 0 0.68 0 0 Z " fill="#8BBF97" transform="translate(0,359)"/>
<path d="M0 0 C7.64080129 -0.04632731 15.28158803 -0.08187121 22.92249775 -0.10362434 C26.47043631 -0.11406444 30.01827883 -0.12822763 33.56616211 -0.15087891 C37.64437791 -0.17675331 41.72249271 -0.1864709 45.80078125 -0.1953125 C47.07585037 -0.20563507 48.35091949 -0.21595764 49.66462708 -0.22659302 C50.84562485 -0.22674408 52.02662262 -0.22689514 53.2434082 -0.22705078 C54.80560844 -0.23371262 54.80560844 -0.23371262 56.39936829 -0.24050903 C59 0 59 0 62 2 C56.21706593 3.27456064 50.56808142 3.04868683 44.6875 2.9140625 C43.60041748 2.89282318 42.51333496 2.87158386 41.39331055 2.84970093 C39.10036701 2.8035532 36.80747778 2.75463479 34.51464844 2.703125 C31.01248038 2.62527742 27.51022357 2.55808515 24.0078125 2.4921875 C21.77602839 2.44594899 19.54425693 2.39909464 17.3125 2.3515625 C16.26860107 2.33171295 15.22470215 2.3118634 14.14916992 2.29141235 C9.33983389 2.17783281 4.72836306 1.9857469 0 1 C0 0.67 0 0.34 0 0 Z " fill="#8EC296" transform="translate(497,122)"/>
<path d="M0 0 C0.66 1.32 1.32 2.64 2 4 C22.36435955 4.12001844 42.65345632 3.96327127 63 3 C61.88273621 4.47871399 61.88273621 4.47871399 60 6 C57.24751282 6.36076355 57.24751282 6.36076355 53.8762207 6.34057617 C52.61513992 6.34034958 51.35405914 6.34012299 50.05476379 6.33988953 C48.67843268 6.32456963 47.30210518 6.30892164 45.92578125 6.29296875 C44.51759798 6.2873726 43.10940886 6.28310259 41.70121765 6.28010559 C37.99718056 6.26865818 34.2934971 6.23919235 30.58959961 6.20599365 C26.80913069 6.17529026 23.02860457 6.16159971 19.24804688 6.14648438 C11.83187014 6.11432216 4.41598464 6.06312755 -3 6 C-2 4 -1 2 0 0 Z " fill="#5E936D" transform="translate(472,173)"/>
<path d="M0 0 C0.33 0.66 0.66 1.32 1 2 C1.66 2 2.32 2 3 2 C4.67722261 5.24961881 5.08008969 7.72915919 4.9375 11.3125 C4.79928438 16.17443781 6.12363422 19.54363126 8 24 C8 24.66 8 25.32 8 26 C18.89 26 29.78 26 41 26 C41 26.33 41 26.66 41 27 C29.12 27 17.24 27 5 27 C1.625 13.5 1.625 13.5 0.8125 6.75 C0.65394531 5.46609375 0.49539062 4.1821875 0.33203125 2.859375 C0.16767578 1.44398438 0.16767578 1.44398438 0 0 Z " fill="#76AA82" transform="translate(248,387)"/>
<path d="M0 0 C1.37488287 -0.02749766 2.74993391 -0.0466164 4.125 -0.0625 C5.27355469 -0.07990234 5.27355469 -0.07990234 6.4453125 -0.09765625 C9 0 9 0 11.76977539 0.49780273 C14.98303018 0.99736173 17.9890502 1.129327 21.23828125 1.1328125 C22.38748047 1.13410156 23.53667969 1.13539063 24.72070312 1.13671875 C25.90599609 1.13285156 27.09128906 1.12898437 28.3125 1.125 C29.51712891 1.12886719 30.72175781 1.13273438 31.96289062 1.13671875 C33.10564453 1.13542969 34.24839844 1.13414062 35.42578125 1.1328125 C36.47161377 1.13168457 37.51744629 1.13055664 38.5949707 1.12939453 C40.95151652 1.27118249 40.95151652 1.27118249 42 0 C44.18639453 -0.07258946 46.37500389 -0.08373783 48.5625 -0.0625 C50.35880859 -0.04896484 50.35880859 -0.04896484 52.19140625 -0.03515625 C53.11824219 -0.02355469 54.04507813 -0.01195312 55 0 C55 0.33 55 0.66 55 1 C36.7279754 5.45529772 18.2720246 5.45529772 0 1 C0 0.67 0 0.34 0 0 Z " fill="#8CBF97" transform="translate(220,185)"/>
<path d="M0 0 C0.66 0 1.32 0 2 0 C0.63692947 4.00401967 -1.15619164 6.63435702 -4 9.75 C-4.70125 10.52859375 -5.4025 11.3071875 -6.125 12.109375 C-8 14 -8 14 -10 15 C-10.144375 15.66 -10.28875 16.32 -10.4375 17 C-10.623125 17.66 -10.80875 18.32 -11 19 C-11.99 19.33 -12.98 19.66 -14 20 C-15.21869929 22.50447516 -15.21869929 22.50447516 -16 25 C-16.66 25 -17.32 25 -18 25 C-18.33 27.31 -18.66 29.62 -19 32 C-19.66 32 -20.32 32 -21 32 C-17.65956743 20.26774904 -10.8518496 10.36008018 -2 2 C-1.34 1.34 -0.68 0.68 0 0 Z " fill="#71B285" transform="translate(364,57)"/>
<path d="M0 0 C0.66 0.33 1.32 0.66 2 1 C1.35861776 3.98019006 0.7121269 6.95910676 0.0625 9.9375 C-0.11990234 10.78763672 -0.30230469 11.63777344 -0.49023438 12.51367188 C-0.66748047 13.32255859 -0.84472656 14.13144531 -1.02734375 14.96484375 C-1.18968506 15.7137085 -1.35202637 16.46257324 -1.51928711 17.23413086 C-2 19 -2 19 -3 20 C-5.59359322 20.08851529 -8.16039691 20.11525945 -10.75390625 20.09765625 C-11.52935287 20.0962413 -12.3047995 20.09482635 -13.10374451 20.09336853 C-15.59003494 20.08775345 -18.0762366 20.07519846 -20.5625 20.0625 C-22.24413933 20.05748694 -23.92578006 20.0529237 -25.60742188 20.04882812 C-29.73831566 20.03777913 -33.86914276 20.02050445 -38 20 C-38 19.67 -38 19.34 -38 19 C-26.64732258 18.20431798 -15.37981825 17.87181682 -4 18 C-3.79503906 16.86820312 -3.59007812 15.73640625 -3.37890625 14.5703125 C-3.10693028 13.08851239 -2.83478613 11.60674315 -2.5625 10.125 C-2.42779297 9.37863281 -2.29308594 8.63226563 -2.15429688 7.86328125 C-1.11328125 2.2265625 -1.11328125 2.2265625 0 0 Z " fill="#69A477" transform="translate(221,394)"/>
<path d="M0 0 C0.33 0.99 0.66 1.98 1 3 C-1.68008771 7.02013156 -4.14672203 7.57880046 -8.75 8.625 C-12.84918489 9.09798287 -16.8791328 9.08241734 -21 9 C-21 8.34 -21 7.68 -21 7 C-23.31 6.34 -25.62 5.68 -28 5 C-27.67 4.34 -27.34 3.68 -27 3 C-26.34 3.33 -25.68 3.66 -25 4 C-21.73595381 4.29125335 -18.46303826 4.27787486 -15.1875 4.3125 C-14.28451172 4.34150391 -13.38152344 4.37050781 -12.45117188 4.40039062 C-8.01357941 4.44277762 -5.67798536 4.43651112 -1.86328125 1.98046875 C-1.24839844 1.32691406 -0.63351563 0.67335938 0 0 Z " fill="#599F69" transform="translate(97,379)"/>
<path d="M0 0 C0.66022156 0.02361099 1.32044312 0.04722198 2.00067139 0.07154846 C4.099644 0.14783435 6.19821449 0.23200778 8.296875 0.31640625 C9.72393897 0.36966215 11.15102228 0.42240229 12.578125 0.47460938 C16.06795233 0.60340124 19.55746298 0.73926644 23.046875 0.87890625 C23.541875 3.35390625 23.541875 3.35390625 24.046875 5.87890625 C25.036875 5.87890625 26.026875 5.87890625 27.046875 5.87890625 C27.046875 6.53890625 27.046875 7.19890625 27.046875 7.87890625 C23.19908667 7.20572045 19.67241284 6.09145279 15.984375 4.81640625 C6.89109847 1.97732896 -1.64407368 2.44674451 -10.953125 3.87890625 C-10.953125 2.88890625 -10.953125 1.89890625 -10.953125 0.87890625 C-7.25494167 -0.32017721 -3.8609465 -0.14723949 0 0 Z " fill="#7DB289" transform="translate(244.953125,40.12109375)"/>
<path d="M0 0 C0 0.33 0 0.66 0 1 C-1.99954746 1.04254356 -4.00041636 1.04080783 -6 1 C-6.495 0.505 -6.495 0.505 -7 0 C-8.51928038 -0.07179964 -10.04167482 -0.08392007 -11.5625 -0.0625 C-12.38878906 -0.05347656 -13.21507812 -0.04445312 -14.06640625 -0.03515625 C-15.02353516 -0.01775391 -15.02353516 -0.01775391 -16 0 C-16 -0.66 -16 -1.32 -16 -2 C-23.6616345 -1.69831699 -23.6616345 -1.69831699 -30.875 0.625 C-34.23992807 2.10556835 -35.57548217 2.14150594 -39 1 C-38 -1 -38 -1 -35.69921875 -1.8515625 C-22.69675495 -5.19071663 -12.61578833 -4.18037956 0 0 Z " fill="#78B688" transform="translate(256,228)"/>
<path d="M0 0 C0.66 0.33 1.32 0.66 2 1 C0.74602127 8.01694482 -0.57584088 15.01556007 -2 22 C-2.66 21.67 -3.32 21.34 -4 21 C-3.91621094 20.37351562 -3.83242188 19.74703125 -3.74609375 19.1015625 C-3.64425781 18.28429687 -3.54242188 17.46703125 -3.4375 16.625 C-3.33308594 15.81289062 -3.22867187 15.00078125 -3.12109375 14.1640625 C-2.81762672 11.95100814 -2.81762672 11.95100814 -4 10 C-4.99 10.495 -4.99 10.495 -6 11 C-6.625 8.1875 -6.625 8.1875 -7 5 C-6.34 4.01 -5.68 3.02 -5 2 C-2.375 1.8125 -2.375 1.8125 0 2 C0 1.34 0 0.68 0 0 Z " fill="#5FA773" transform="translate(329,81)"/>
<path d="M0 0 C5.90032621 -0.20001106 10.97624901 0.43570351 16.6875 1.875 C17.42033203 2.04902344 18.15316406 2.22304688 18.90820312 2.40234375 C22.74602656 3.33671014 26.36983772 4.41046149 30 6 C30 6.33 30 6.66 30 7 C21.28394047 7.15291333 8.03852215 7.22585728 1.0625 1.375 C0.711875 0.92125 0.36125 0.4675 0 0 Z " fill="#6AAF7C" transform="translate(259,0)"/>
<path d="M0 0 C6.6 0 13.2 0 20 0 C20 0.66 20 1.32 20 2 C21.65 1.67 23.3 1.34 25 1 C27.4294516 4.6441774 27.16179575 6.71241272 27 11 C22.125 7.25 22.125 7.25 21 5 C14.04602549 1.52301275 7.66721877 1.6844285 0 2 C0 1.34 0 0.68 0 0 Z M26 1 C28 2 28 2 28 2 Z " fill="#4EA766" transform="translate(67,249)"/>
<path d="M0 0 C1 3 1 3 -0.3125 5.6875 C-0.869375 6.450625 -1.42625 7.21375 -2 8 C-2.66 8 -3.32 8 -4 8 C-4 8.99 -4 9.98 -4 11 C-5.32 11.33 -6.64 11.66 -8 12 C-8.33 14.64 -8.66 17.28 -9 20 C-8.34 20 -7.68 20 -7 20 C-7.33 21.65 -7.66 23.3 -8 25 C-10.09715785 21.85426323 -10.52004559 19.98543749 -11.125 16.3125 C-11.29257813 15.31863281 -11.46015625 14.32476562 -11.6328125 13.30078125 C-11.75398437 12.54152344 -11.87515625 11.78226562 -12 11 C-11.38511719 10.54109375 -10.77023438 10.0821875 -10.13671875 9.609375 C-9.32847656 8.99578125 -8.52023438 8.3821875 -7.6875 7.75 C-6.88699219 7.14671875 -6.08648437 6.5434375 -5.26171875 5.921875 C-3.11450388 4.09729864 -1.58398701 2.31702954 0 0 Z " fill="#63AB76" transform="translate(254,353)"/>
<path d="M0 0 C0.33 0 0.66 0 1 0 C0.85923685 1.9587043 0.7122324 3.91696093 0.5625 5.875 C0.48128906 6.96554688 0.40007812 8.05609375 0.31640625 9.1796875 C0 12 0 12 -1 14 C-2.32 14 -3.64 14 -5 14 C-5.2475 14.5775 -5.495 15.155 -5.75 15.75 C-7.23824784 18.42884611 -8.57263634 20.11205049 -11 22 C-14.25 22.25 -14.25 22.25 -17 22 C-16 20 -16 20 -13.6875 18.6875 C-10.72371705 16.82652001 -9.14081233 14.73138124 -7 12 C-6.34 12 -5.68 12 -5 12 C-4.731875 11.319375 -4.46375 10.63875 -4.1875 9.9375 C-2.83946694 6.60289191 -1.42463702 3.30256763 0 0 Z " fill="#72B285" transform="translate(294,119)"/>
<path d="M0 0 C1.20398438 0.00193359 2.40796875 0.00386719 3.6484375 0.00585938 C5.535625 0.02422852 5.535625 0.02422852 7.4609375 0.04296875 C8.72679687 0.04361328 9.99265625 0.04425781 11.296875 0.04492188 C20.69577156 0.09030281 20.69577156 0.09030281 21.8359375 1.23046875 C21.92369355 3.37605702 21.94288969 5.52451296 21.93359375 7.671875 C21.93037109 8.97705078 21.92714844 10.28222656 21.92382812 11.62695312 C21.91547151 13.01562565 21.90700655 14.40429752 21.8984375 15.79296875 C21.89342416 17.18554531 21.88886097 18.57812356 21.88476562 19.97070312 C21.87293184 23.39066745 21.8564463 26.81054719 21.8359375 30.23046875 C21.5059375 30.23046875 21.1759375 30.23046875 20.8359375 30.23046875 C20.8359375 21.32046875 20.8359375 12.41046875 20.8359375 3.23046875 C18.8559375 3.23046875 16.8759375 3.23046875 14.8359375 3.23046875 C14.8359375 2.57046875 14.8359375 1.91046875 14.8359375 1.23046875 C6.9159375 1.56046875 -1.0040625 1.89046875 -9.1640625 2.23046875 C-5.63960859 -0.11916719 -4.16895856 -0.01544507 0 0 Z " fill="#85BE90" transform="translate(426.1640625,236.76953125)"/>
<path d="M0 0 C18.81 0 37.62 0 57 0 C57 0.33 57 0.66 57 1 C39.51 1 22.02 1 4 1 C4 2.65 4 4.3 4 6 C2.62437146 4.71034824 1.29233607 3.37310707 0 2 C0 1.34 0 0.68 0 0 Z " fill="#74A47F" transform="translate(476,57)"/>
<path d="M0 0 C0.99 0.33 1.98 0.66 3 1 C2.01 1.495 2.01 1.495 1 2 C1 2.66 1 3.32 1 4 C-2.44633882 6.29755922 -3.71068391 6.23643976 -7.76171875 6.1953125 C-8.87998047 6.18886719 -9.99824219 6.18242187 -11.15039062 6.17578125 C-12.90125977 6.15064453 -12.90125977 6.15064453 -14.6875 6.125 C-15.86634766 6.11597656 -17.04519531 6.10695312 -18.25976562 6.09765625 C-21.17338026 6.07406423 -24.08658892 6.0411454 -27 6 C-27 5.34 -27 4.68 -27 4 C-26.43079834 4.02094727 -25.86159668 4.04189453 -25.27514648 4.06347656 C-22.66278184 4.14730994 -20.05070116 4.19886818 -17.4375 4.25 C-16.09461914 4.30027344 -16.09461914 4.30027344 -14.72460938 4.3515625 C-8.46766933 4.44323928 -5.25128628 3.3251388 0 0 Z " fill="#66A776" transform="translate(560,139)"/>
<path d="M0 0 C0.99 0 1.98 0 3 0 C3 1.65 3 3.3 3 5 C3.99 5.33 4.98 5.66 6 6 C6 7.65 6 9.3 6 11 C17.88 11 29.76 11 42 11 C42 11.33 42 11.66 42 12 C29.46 12 16.92 12 4 12 C2.66666667 8 1.33333333 4 0 0 Z " fill="#63A774" transform="translate(94,260)"/>
<path d="M0 0 C0.96486328 0.433125 0.96486328 0.433125 1.94921875 0.875 C10.35521492 4.32853338 19.12144518 5.63147528 28 3 C28 3.99 28 4.98 28 6 C24.6244732 7.6877634 20.83376289 7.18459799 17.125 7.1875 C15.90103516 7.20586914 15.90103516 7.20586914 14.65234375 7.22460938 C13.46705078 7.22750977 13.46705078 7.22750977 12.2578125 7.23046875 C11.5373877 7.23457764 10.81696289 7.23868652 10.07470703 7.24291992 C7.69561979 6.96436122 6.06978145 6.17652882 4 5 C4 4.34 4 3.68 4 3 C2.68 2.67 1.36 2.34 0 2 C0 1.34 0 0.68 0 0 Z " fill="#68A576" transform="translate(394,142)"/>
<path d="M0 0 C0.33 0 0.66 0 1 0 C1.33 7.26 1.66 14.52 2 22 C2.66 22.33 3.32 22.66 4 23 C3.98839844 24.05960938 3.97679687 25.11921875 3.96484375 26.2109375 C3.95546524 27.59895658 3.94636511 28.98697755 3.9375 30.375 C3.92912109 31.07367188 3.92074219 31.77234375 3.91210938 32.4921875 C3.8164558 36.37295376 3.8164558 36.37295376 5 40 C4.34 40.99 3.68 41.98 3 43 C-1.63747766 29.39673221 -0.11159675 14.15390202 0 0 Z " fill="#87BB95" transform="translate(155,81)"/>
<path d="M0 0 C0.66 0 1.32 0 2 0 C2 9.57 2 19.14 2 29 C1.01 29.33 0.02 29.66 -1 30 C-0.67 20.1 -0.34 10.2 0 0 Z " fill="#529664" transform="translate(209,271)"/>
<path d="M0 0 C1.27345471 4.28854601 0.73248466 6.81316208 -1 11 C-4.84318127 15.45436104 -9.44202263 18.21725254 -15 20 C-17.20703125 19.56640625 -17.20703125 19.56640625 -19 19 C-17.80375 18.443125 -16.6075 17.88625 -15.375 17.3125 C-6.9793393 13.03323026 -3.74415559 8.53203598 0 0 Z " fill="#7EB58D" transform="translate(441,125)"/>
<path d="M0 0 C3.72712534 5.590688 4.24834601 11.08092223 4.1953125 17.68359375 C4.1924826 18.38396255 4.18965271 19.08433136 4.18673706 19.80592346 C4.17564885 22.0166317 4.15056703 24.22691671 4.125 26.4375 C4.11495546 27.94725972 4.1058322 29.45702588 4.09765625 30.96679688 C4.07574714 34.64466597 4.04129758 38.3222916 4 42 C3.67 42 3.34 42 3 42 C2.97494385 41.18732666 2.9498877 40.37465332 2.92407227 39.53735352 C2.80850882 35.87889248 2.68560416 32.22071472 2.5625 28.5625 C2.52318359 27.28310547 2.48386719 26.00371094 2.44335938 24.68554688 C2.38051758 22.86313477 2.38051758 22.86313477 2.31640625 21.00390625 C2.27974854 19.87799072 2.24309082 18.7520752 2.20532227 17.59204102 C2.28781955 15.07146559 2.28781955 15.07146559 1 14 C0.75738335 11.74456376 0.61667867 9.49054477 0.4765625 7.2265625 C-0.08363037 4.60926796 -0.96995128 3.6826607 -3 2 C-2.01 2 -1.02 2 0 2 C0 1.34 0 0.68 0 0 Z " fill="#5EA36F" transform="translate(284,256)"/>
<path d="M0 0 C0.66 0.33 1.32 0.66 2 1 C0.68 1.33 -0.64 1.66 -2 2 C-2 2.99 -2 3.98 -2 5 C-4.08203125 6.68359375 -4.08203125 6.68359375 -6.8125 8.4375 C-10.26082115 10.66174178 -12.72531828 12.56152763 -15 16 C-16.32 15.67 -17.64 15.34 -19 15 C-15.61398317 11.52779365 -12.1232405 8.32706796 -8.375 5.25 C-7.43398437 4.47140625 -6.49296875 3.6928125 -5.5234375 2.890625 C-3 1 -3 1 0 0 Z " fill="#85BA93" transform="translate(198,11)"/>
<path d="M0 0 C4.7943452 -0.19177381 8.58125882 0.04753297 13 2 C13.99 3.485 13.99 3.485 15 5 C15.99 5.33 16.98 5.66 18 6 C18 6.66 18 7.32 18 8 C19.65 8.66 21.3 9.32 23 10 C22.34 11.32 21.68 12.64 21 14 C21 13.34 21 12.68 21 12 C20.34 12 19.68 12 19 12 C17.66666667 10.66666667 16.33333333 9.33333333 15 8 C10.30434592 4.3963585 5.60612777 2.64446415 0 1 C0 0.67 0 0.34 0 0 Z " fill="#77B485" transform="translate(416,81)"/>
<path d="M0 0 C0.66 0 1.32 0 2 0 C2 0.66 2 1.32 2 2 C2.9590625 2.3403125 2.9590625 2.3403125 3.9375 2.6875 C6 4 6 4 6.75 6.625 C6.8325 7.40875 6.915 8.1925 7 9 C8.65 9 10.3 9 12 9 C12 9.99 12 10.98 12 12 C12.66 12 13.32 12 14 12 C13.67 12.99 13.34 13.98 13 15 C8.49966502 12.61746972 5.41066025 9.72793097 2 6 C2 5.34 2 4.68 2 4 C1.34 4 0.68 4 0 4 C0 2.68 0 1.36 0 0 Z " fill="#77B184" transform="translate(174,153)"/>
<path d="M0 0 C2.31 0.66 4.62 1.32 7 2 C7 2.99 7 3.98 7 5 C8.32 5.33 9.64 5.66 11 6 C11 6.66 11 7.32 11 8 C12.093125 8.226875 13.18625 8.45375 14.3125 8.6875 C18 10 18 10 19.9375 12.625 C20.288125 13.40875 20.63875 14.1925 21 15 C16.45671787 13.70000482 13.15545661 11.94703099 9.375 9.125 C8.45460938 8.44695312 7.53421875 7.76890625 6.5859375 7.0703125 C4.20973625 5.16791573 2.06245488 3.23674684 0 1 C0 0.67 0 0.34 0 0 Z " fill="#6FAE7E" transform="translate(15,311)"/>
<path d="M0 0 C0.33 0 0.66 0 1 0 C1 6.93 1 13.86 1 21 C-2.47823115 22.15941038 -4.45895578 21.70820884 -8 21 C-8 20.67 -8 20.34 -8 20 C-5.69 20 -3.38 20 -1 20 C-1.20625 18.741875 -1.4125 17.48375 -1.625 16.1875 C-2.27821216 10.56808579 -1.23817517 5.47457617 0 0 Z " fill="#549F67" transform="translate(584,402)"/>
<path d="M0 0 C0.99 0.66 1.98 1.32 3 2 C3.06473583 4.00681087 3.11931251 6.01718714 3.0390625 8.0234375 C2.99669726 10.16711873 3.32238511 11.96715532 4 14 C4.66 14 5.32 14 6 14 C6 15.98 6 17.96 6 20 C2.71465174 17.07431091 1.14599634 14.5764761 -0.3125 10.4375 C-0.65925781 9.48746094 -1.00601563 8.53742188 -1.36328125 7.55859375 C-2.14891344 4.4016055 -1.42643834 2.85287668 0 0 Z " fill="#69AE7B" transform="translate(3,284)"/>
<path d="M0 0 C0.33 0 0.66 0 1 0 C1.33 11.22 1.66 22.44 2 34 C0.02 34.495 0.02 34.495 -2 35 C-2.66 34.34 -3.32 33.68 -4 33 C-2.68 33 -1.36 33 0 33 C0 22.11 0 11.22 0 0 Z " fill="#5C956C" transform="translate(446,240)"/>
<path d="M0 0 C2.625 0.375 2.625 0.375 5 1 C5 1.66 5 2.32 5 3 C5.7425 3.28875 6.485 3.5775 7.25 3.875 C12.16393443 5.8852459 12.16393443 5.8852459 14 7 C14.33 7.99 14.66 8.98 15 10 C8.65660349 8.19389405 3.43061745 5.74372266 -2 2 C-1.34 1.34 -0.68 0.68 0 0 Z " fill="#77B183" transform="translate(195,172)"/>
<path d="M0 0 C3.125 -0.1875 3.125 -0.1875 6 0 C5.38511719 0.65355469 5.38511719 0.65355469 4.7578125 1.3203125 C-0.55309074 7.19025819 -2.05449176 12.12076469 -3 20 C-3.33 20 -3.66 20 -4 20 C-5.50089885 13.72351388 -4.36589606 8.96164118 -2 3 C-1.34 2.01 -0.68 1.02 0 0 Z " fill="#76B589" transform="translate(219,326)"/>
<path d="M0 0 C3.44604101 4.30755127 2.98486826 6.65477417 2.78125 12.1015625 C2.73613281 13.31328125 2.69101562 14.525 2.64453125 15.7734375 C2.59683594 17.04445313 2.54914063 18.31546875 2.5 19.625 C2.42845703 21.543125 2.42845703 21.543125 2.35546875 23.5 C2.23730908 26.66667914 2.11880486 29.83334501 2 33 C1.67 33 1.34 33 1 33 C0.97494385 32.24380371 0.9498877 31.48760742 0.92407227 30.70849609 C0.80763114 27.26384541 0.68512338 23.81943592 0.5625 20.375 C0.52318359 19.18519531 0.48386719 17.99539063 0.44335938 16.76953125 C0.40146484 15.61582031 0.35957031 14.46210938 0.31640625 13.2734375 C0.27974854 12.21560059 0.24309082 11.15776367 0.20532227 10.06787109 C0.05065884 6.94269892 0.05065884 6.94269892 -0.58227539 3.67041016 C-0.72012451 2.7891748 -0.85797363 1.90793945 -1 1 C-0.67 0.67 -0.34 0.34 0 0 Z " fill="#6EA88C" transform="translate(260,265)"/>
<path d="M0 0 C2.0625 0.4375 2.0625 0.4375 4 1 C3.34 1 2.68 1 2 1 C1.8453125 1.9590625 1.8453125 1.9590625 1.6875 2.9375 C1.460625 3.618125 1.23375 4.29875 1 5 C0.01 5.33 -0.98 5.66 -2 6 C-3.21869929 8.50447516 -3.21869929 8.50447516 -4 11 C-4.66 11 -5.32 11 -6 11 C-6.33 13.31 -6.66 15.62 -7 18 C-7.66 18 -8.32 18 -9 18 C-7.16797669 11.56557667 -4.84640967 4.84640967 0 0 Z " fill="#70AC7E" transform="translate(352,71)"/>
<path d="M0 0 C2.50031654 3.75047482 2.53603554 5.55856266 2 10 C-0.54137159 13.15954305 -2.14622659 14.71540886 -6 16 C-4.25192871 10.53262809 -2.34205919 5.24175152 0 0 Z " fill="#68AD79" transform="translate(166,43)"/>
<path d="M0 0 C1.5 1.25 1.5 1.25 3 3 C3 4.32 3 5.64 3 7 C3.99 7.33 4.98 7.66 6 8 C6.66 11.96 7.32 15.92 8 20 C4.18722783 17.45815189 3.61184334 14.73531562 2.3125 10.5625 C2.08755859 9.88123047 1.86261719 9.19996094 1.63085938 8.49804688 C0.68292945 5.55629475 0 3.10881477 0 0 Z " fill="#79B489" transform="translate(340,130)"/>
<path d="M0 0 C0.66 0 1.32 0 2 0 C2.66 2.97 3.32 5.94 4 9 C4.66 9 5.32 9 6 9 C7.2890625 10.75 7.2890625 10.75 8.625 13 C9.07101562 13.7425 9.51703125 14.485 9.9765625 15.25 C10.48316406 16.11625 10.48316406 16.11625 11 17 C9.68 16.67 8.36 16.34 7 16 C6.896875 15.360625 6.79375 14.72125 6.6875 14.0625 C6.460625 13.381875 6.23375 12.70125 6 12 C5.01 11.67 4.02 11.34 3 11 C0.60236815 8.60236815 0.65719414 7.66726502 0.375 4.375 C0.30023438 3.55773437 0.22546875 2.74046875 0.1484375 1.8984375 C0.09945313 1.27195312 0.05046875 0.64546875 0 0 Z " fill="#70AF7F" transform="translate(378,122)"/>
<path d="M0 0 C1.32 0 2.64 0 4 0 C6.09570426 5.69398894 7.45018084 10.95198929 8 17 C6.68 17.33 5.36 17.66 4 18 C4.05220703 17.14728516 4.05220703 17.14728516 4.10546875 16.27734375 C4.3030118 10.64266336 3.56116101 7.01987558 1 2 C0.67 1.34 0.34 0.68 0 0 Z " fill="#6CAE7F" transform="translate(252,331)"/>
<path d="M0 0 C1.16015625 0.00322266 2.3203125 0.00644531 3.515625 0.00976562 C5.32546875 0.02233398 5.32546875 0.02233398 7.171875 0.03515625 C9.00492188 0.04192383 9.00492188 0.04192383 10.875 0.04882812 C13.89067446 0.0606081 16.90624998 0.07705772 19.921875 0.09765625 C19.921875 0.42765625 19.921875 0.75765625 19.921875 1.09765625 C15.48577187 1.49061025 11.04796402 1.85894789 6.609375 2.22265625 C4.71541992 2.39087891 4.71541992 2.39087891 2.78320312 2.5625 C0.97045898 2.70751953 0.97045898 2.70751953 -0.87890625 2.85546875 C-1.99434814 2.94973145 -3.10979004 3.04399414 -4.2590332 3.14111328 C-7.078125 3.09765625 -7.078125 3.09765625 -10.078125 1.09765625 C-6.66747361 0.05791126 -3.55547658 -0.01742881 0 0 Z " fill="#61AB72" transform="translate(235.078125,-0.09765625)"/>
<path d="M0 0 C2.10700726 0.20138301 4.2107511 0.43712773 6.3125 0.6875 C7.48425781 0.81511719 8.65601563 0.94273437 9.86328125 1.07421875 C13 2 13 2 14.91796875 4.58203125 C15.27503906 5.37996094 15.63210937 6.17789062 16 7 C14.26982492 6.54548816 12.54090123 6.08621143 10.8125 5.625 C9.84957031 5.36976563 8.88664062 5.11453125 7.89453125 4.8515625 C5.17789793 4.05233704 2.60862825 3.0968638 0 2 C0 1.34 0 0.68 0 0 Z " fill="#77B388" transform="translate(49,330)"/>
<path d="M0 0 C1.75280733 0.42611351 3.50217435 0.86639267 5.25 1.3125 C6.22453125 1.55613281 7.1990625 1.79976563 8.203125 2.05078125 C11 3 11 3 15 6 C11.04 5.67 7.08 5.34 3 5 C3 4.34 3 3.68 3 3 C1.68 2.67 0.36 2.34 -1 2 C-0.67 1.34 -0.34 0.68 0 0 Z " fill="#6EB082" transform="translate(97,298)"/>
<path d="M0 0 C3.29680965 0.65784963 5.84117922 1.89420573 8.75 3.5625 C9.94882812 4.24505859 9.94882812 4.24505859 11.171875 4.94140625 C11.77515625 5.29074219 12.3784375 5.64007813 13 6 C13 6.66 13 7.32 13 8 C13.99 8.33 14.98 8.66 16 9 C11.40191871 8.46105575 8.13215631 7.23428472 4.125 4.9375 C3.15820312 4.38964844 2.19140625 3.84179688 1.1953125 3.27734375 C0.47085937 2.85582031 -0.25359375 2.43429687 -1 2 C-0.67 1.34 -0.34 0.68 0 0 Z " fill="#7BB38A" transform="translate(30,411)"/>
<path d="M0 0 C0.33 0.99 0.66 1.98 1 3 C-1.40436026 6.60654039 -2.94679607 6.85452932 -7 8 C-7 7.34 -7 6.68 -7 6 C-11.95 6 -16.9 6 -22 6 C-22 5.67 -22 5.34 -22 5 C-20.83082031 4.97421875 -19.66164063 4.9484375 -18.45703125 4.921875 C-16.90881774 4.86557633 -15.3606421 4.80822938 -13.8125 4.75 C-12.65911133 4.72873047 -12.65911133 4.72873047 -11.48242188 4.70703125 C-6.42257471 4.48987043 -3.72653344 3.73400144 0 0 Z " fill="#9BCEA8" transform="translate(97,379)"/>
<path d="M0 0 C4.875 3.75 4.875 3.75 6 6 C6.37410381 10.95687553 6.12432647 14.03450872 3 18 C2.34 18 1.68 18 1 18 C1.33 16.68 1.66 15.36 2 14 C2.66 14 3.32 14 4 14 C3.00956295 9.16371695 2.04301154 4.52381127 0 0 Z " fill="#7BB38D" transform="translate(534,158)"/>
<path d="M0 0 C2.06356895 0.2840051 4.1258285 0.57753352 6.1875 0.875 C7.33605469 1.03742187 8.48460937 1.19984375 9.66796875 1.3671875 C12.68724625 1.94060245 15.20575848 2.74759043 18 4 C18 4.33 18 4.66 18 5 C12.84828377 5.09038099 8.08086796 4.84681133 3 4 C2.67 3.01 2.34 2.02 2 1 C1.34 0.67 0.68 0.34 0 0 Z " fill="#73AC82" transform="translate(271,2)"/>
<path d="M0 0 C1.74949772 2.62424658 2.65389981 4.55727216 3.625 7.5 C3.88539063 8.2734375 4.14578125 9.046875 4.4140625 9.84375 C5 12 5 12 5 15 C4.01 14.67 3.02 14.34 2 14 C0.875 11.0625 0.875 11.0625 0 8 C-0.33 7.34 -0.66 6.68 -1 6 C-0.71887936 3.99199544 -0.38932033 1.98985949 0 0 Z " fill="#69AF79" transform="translate(153,336)"/>
<path d="M0 0 C0.66 0.33 1.32 0.66 2 1 C2 1.66 2 2.32 2 3 C1.34 3 0.68 3 0 3 C-0.33 3.99 -0.66 4.98 -1 6 C-2.875 8.1875 -2.875 8.1875 -5 10 C-5.99 10 -6.98 10 -8 10 C-6.5682479 4.98886765 -4.01554307 3.05530451 0 0 Z " fill="#77B085" transform="translate(182,301)"/>
<path d="M0 0 C0.99 0.33 1.98 0.66 3 1 C-0.31457218 5.69564393 -4.36279281 8.72469104 -9 12 C-9 10.68 -9 9.36 -9 8 C-8.34 8 -7.68 8 -7 8 C-6.6596875 7.0409375 -6.6596875 7.0409375 -6.3125 6.0625 C-5 4 -5 4 -2.375 3.25 C-1.59125 3.1675 -0.8075 3.085 0 3 C0 2.01 0 1.02 0 0 Z " fill="#71AD7F" transform="translate(464,161)"/>
<path d="M0 0 C1.40185547 0.07250977 1.40185547 0.07250977 2.83203125 0.14648438 C3.80011719 0.20255859 4.76820313 0.25863281 5.765625 0.31640625 C7.24095703 0.3947168 7.24095703 0.3947168 8.74609375 0.47460938 C11.16961349 0.60402062 13.59269364 0.7389753 16.015625 0.87890625 C16.015625 1.20890625 16.015625 1.53890625 16.015625 1.87890625 C14.88125 1.93949219 13.746875 2.00007813 12.578125 2.0625 C11.05728365 2.14699119 9.53645075 2.23163476 8.015625 2.31640625 C7.27183594 2.35572266 6.52804688 2.39503906 5.76171875 2.43554688 C0.80828582 2.71552352 -4.06750969 3.21401196 -8.984375 3.87890625 C-8.984375 2.88890625 -8.984375 1.89890625 -8.984375 0.87890625 C-5.86685502 -0.05824297 -3.24287591 -0.1779627 0 0 Z " fill="#69A779" transform="translate(242.984375,40.12109375)"/>
<path d="M0 0 C4.49797113 1.68673918 8.72886302 3.81673892 13 6 C12.67 6.66 12.34 7.32 12 8 C9.61435923 7.42415568 7.33317216 6.77772405 5 6 C5 5.34 5 4.68 5 4 C3.35 4 1.7 4 0 4 C0 2.68 0 1.36 0 0 Z " fill="#6DAF7F" transform="translate(289,7)"/>
<path d="M0 0 C0.66 0.33 1.32 0.66 2 1 C0.80086322 5.39683488 -0.4288115 8.09840934 -4 11 C-4.66 11 -5.32 11 -6 11 C-6 11.66 -6 12.32 -6 13 C-6.66 12.67 -7.32 12.34 -8 12 C-7.05208333 10.578125 -6.10416667 9.15625 -5.15625 7.734375 C-4.7746875 7.16203125 -4.393125 6.5896875 -4 6 C-2 3 -2 3 0 0 Z " fill="#7BB48A" transform="translate(175,30)"/>
<path d="M0 0 C6.6 0 13.2 0 20 0 C20 1.32 20 2.64 20 4 C19.113125 3.67 18.22625 3.34 17.3125 3 C11.68690677 1.34951604 5.80154186 1.84296578 0 2 C0 1.34 0 0.68 0 0 Z " fill="#71AF7D" transform="translate(67,249)"/>
<path d="M0 0 C7.66742597 4.81776765 7.66742597 4.81776765 9 10 C7 11 7 11 4.984375 10.3515625 C2.44035878 8.61882704 2.08583603 7.30042611 1.25 4.375 C1.00765625 3.55773437 0.7653125 2.74046875 0.515625 1.8984375 C0.34546875 1.27195313 0.1753125 0.64546875 0 0 Z " fill="#68A979" transform="translate(134,228)"/>
<path d="M0 0 C0 0.66 0 1.32 0 2 C-1.55759343 2.53532823 -3.12138045 3.05265378 -4.6875 3.5625 C-5.55761719 3.85253906 -6.42773438 4.14257812 -7.32421875 4.44140625 C-10.24631074 5.05141961 -12.14400553 4.77703633 -15 4 C-12.3851183 2.25674553 -10.9946567 1.58412043 -8.0625 0.875 C-7.39347656 0.70742187 -6.72445312 0.53984375 -6.03515625 0.3671875 C-4 0 -4 0 0 0 Z " fill="#74B381" transform="translate(57,210)"/>
<path d="M0 0 C3.28597022 2.78043634 4.84501759 4.40073467 5.9375 8.625 C6 12 6 12 4 15 C2.98617037 11.3791799 2.50102309 7.72188582 2 4 C1.34 4 0.68 4 0 4 C0 2.68 0 1.36 0 0 Z " fill="#6DA77C" transform="translate(559,124)"/>
<path d="M0 0 C0.33 0 0.66 0 1 0 C1.67155349 2.26949102 2.3373963 4.5403961 3 6.8125 C3.37125 8.07707031 3.7425 9.34164062 4.125 10.64453125 C5 14 5 14 5 17 C4.34 17 3.68 17 3 17 C2.67 16.01 2.34 15.02 2 14 C1.01 13.34 0.02 12.68 -1 12 C-0.7525 10.9790625 -0.7525 10.9790625 -0.5 9.9375 C0.07089059 6.5835178 0.06659023 3.39610195 0 0 Z " fill="#70AE7F" transform="translate(202,105)"/>
<path d="M0 0 C5.94 0.99 5.94 0.99 12 2 C12 2.66 12 3.32 12 4 C12.66 4.33 13.32 4.66 14 5 C10.30962722 6.37095624 8.29116165 5.60010967 4.75 4.0625 C3.85796875 3.68222656 2.9659375 3.30195313 2.046875 2.91015625 C1.37140625 2.60980469 0.6959375 2.30945313 0 2 C0 1.34 0 0.68 0 0 Z " fill="#6DAD7F" transform="translate(66,336)"/>
<path d="M0 0 C-1.15356445 1.49536133 -1.15356445 1.49536133 -3 3 C-5.54370117 3.2487793 -5.54370117 3.2487793 -8.54296875 3.07421875 C-9.61611328 3.01943359 -10.68925781 2.96464844 -11.79492188 2.90820312 C-12.91447266 2.83537109 -14.03402344 2.76253906 -15.1875 2.6875 C-16.88422852 2.5956543 -16.88422852 2.5956543 -18.61523438 2.50195312 C-21.41125303 2.34858501 -24.20563763 2.18072046 -27 2 C-27 1.67 -27 1.34 -27 1 C-23.62511542 0.83094103 -20.25007637 0.66518231 -16.875 0.5 C-15.44800781 0.42845703 -15.44800781 0.42845703 -13.9921875 0.35546875 C-9.32313191 0.12850077 -4.67636296 -0.06298132 0 0 Z " fill="#60A771" transform="translate(535,176)"/>
<path d="M0 0 C5.15464734 0.48324819 8.81550319 3.18610761 13 6 C12.01 7.485 12.01 7.485 11 9 C11 8.34 11 7.68 11 7 C10.37351562 6.79503906 9.74703125 6.59007812 9.1015625 6.37890625 C8.28429687 6.10949219 7.46703125 5.84007812 6.625 5.5625 C5.81289063 5.29566406 5.00078125 5.02882813 4.1640625 4.75390625 C2 4 2 4 0 3 C0 2.01 0 1.02 0 0 Z " fill="#6AA979" transform="translate(443,49)"/>
<path d="M0 0 C0 0.66 0 1.32 0 2 C-1.4609375 3.40234375 -1.4609375 3.40234375 -3.375 4.9375 C-5.83901524 6.91986617 -7.20466437 8.30699655 -9 11 C-9.99 11 -10.98 11 -12 11 C-12 10.34 -12 9.68 -12 9 C-11.34 9 -10.68 9 -10 9 C-9.79375 8.443125 -9.5875 7.88625 -9.375 7.3125 C-7.41177961 4.01072025 -4.06489071 0 0 0 Z " fill="#83BA92" transform="translate(207,234)"/>
<path d="M0 0 C11.52164009 0.77904328 11.52164009 0.77904328 17 3 C17 3.66 17 4.32 17 5 C11.0870696 4.35729017 5.65755469 2.80996216 0 1 C0 0.67 0 0.34 0 0 Z " fill="#82B690" transform="translate(46,420)"/>
<path d="M0 0 C3 1 3 1 6 3 C6 3.66 6 4.32 6 5 C0.555 6.485 0.555 6.485 -5 8 C-3.046875 5.75390625 -3.046875 5.75390625 -1.09375 3.5078125 C0.19572458 2.04063579 0.19572458 2.04063579 0 0 Z " fill="#79B68B" transform="translate(281,177)"/>
<path d="M0 0 C0.33 0 0.66 0 1 0 C1.40214229 6.16618181 -0.03181664 11.17745757 -2 17 C-2.33 17 -2.66 17 -3 17 C-2.54775239 11.08507728 -1.8417395 5.64800112 0 0 Z " fill="#6EAC7D" transform="translate(482,124)"/>
<path d="M0 0 C6.6 0 13.2 0 20 0 C20 0.33 20 0.66 20 1 C14.72 1 9.44 1 4 1 C4 2.65 4 4.3 4 6 C2.62437146 4.71034824 1.29233607 3.37310707 0 2 C0 1.34 0 0.68 0 0 Z " fill="#82B08F" transform="translate(476,57)"/>
<path d="M0 0 C0.33 0 0.66 0 1 0 C1.3690205 10.55808656 1.3690205 10.55808656 -1 15 C-1.33 15 -1.66 15 -2 15 C-2.19392201 9.47322267 -1.7479503 5.24385089 0 0 Z " fill="#76B083" transform="translate(158,64)"/>
<path d="M0 0 C0.66 0.99 1.32 1.98 2 3 C0.625 6.6875 0.625 6.6875 -1 10 C-2.32 10 -3.64 10 -5 10 C-3.84414715 6.08788267 -2.64465038 3.1254959 0 0 Z " fill="#7CB78B" transform="translate(8,238)"/>
<path d="M0 0 C4.23429756 1.31061591 8.07407404 2.94356259 12 5 C11.67 5.66 11.34 6.32 11 7 C9.68 7 8.36 7 7 7 C6.67 6.34 6.34 5.68 6 5 C4.02477154 3.95191959 2.02518491 2.9479589 0 2 C0 1.34 0 0.68 0 0 Z " fill="#71AD80" transform="translate(256,229)"/>
<path d="M0 0 C1.28617345 4.20088308 0.59783129 6.89129098 -1 11 C-3.125 12.4375 -3.125 12.4375 -5 13 C-4.39254603 8.14036821 -2.27241033 4.2594482 0 0 Z " fill="#6FAA7E" transform="translate(441,125)"/>
<path d="M0 0 C3.21039243 2.14026162 3.76444483 3.08544035 5.25 6.5 C5.60578125 7.2940625 5.9615625 8.088125 6.328125 8.90625 C7 11 7 11 6 13 C1.90050429 8.69027374 0.36881356 6.14689273 0 0 Z " fill="#75AE86" transform="translate(474,78)"/>
<path d="M0 0 C3.49873271 1.39655297 4.70891831 2.71260484 6.25 6.125 C6.58515625 6.84945313 6.9203125 7.57390625 7.265625 8.3203125 C7.62914062 9.15175781 7.62914062 9.15175781 8 10 C7.01 10 6.02 10 5 10 C4.1641146 8.52227402 3.33135744 7.04277811 2.5 5.5625 C2.0359375 4.73878906 1.571875 3.91507812 1.09375 3.06640625 C0 1 0 1 0 0 Z " fill="#72B184" transform="translate(5,384)"/>
<path d="M0 0 C4.20763224 1.5027258 5.8027758 4.23332995 8 8 C8 8.66 8 9.32 8 10 C4.63362603 8.5572683 2.33497429 6.83532593 0 4 C0 2.68 0 1.36 0 0 Z " fill="#65A374" transform="translate(145,326)"/>
<path d="M0 0 C1.33617352 0.97528737 2.6688751 1.95533319 4 2.9375 C4.7425 3.48277344 5.485 4.02804688 6.25 4.58984375 C6.8275 5.05519531 7.405 5.52054688 8 6 C8 6.33 8 6.66 8 7 C6.35 7 4.7 7 3 7 C3 6.34 3 5.68 3 5 C2.01 5.33 1.02 5.66 0 6 C-1.125 2.25 -1.125 2.25 0 0 Z " fill="#6CB07A" transform="translate(305,16)"/>
<path d="M0 0 C-1.74233825 0.72697561 -3.49427345 1.43098244 -5.25 2.125 C-6.22453125 2.51945313 -7.1990625 2.91390625 -8.203125 3.3203125 C-11 4 -11 4 -13.359375 3.1171875 C-13.90078125 2.74851562 -14.4421875 2.37984375 -15 2 C-10.08781092 -0.23281322 -5.24098771 -1.7469959 0 0 Z " fill="#77B288" transform="translate(225,3)"/>
<path d="M0 0 C0.33 0.66 0.66 1.32 1 2 C3.01669827 3.13350534 3.01669827 3.13350534 5 4 C4.67 5.32 4.34 6.64 4 8 C1 7 1 7 -1 4 C-0.625 1.8125 -0.625 1.8125 0 0 Z " fill="#73B284" transform="translate(11,303)"/>
<path d="M0 0 C7 8.44827586 7 8.44827586 7 12 C6.34 12 5.68 12 5 12 C5 11.01 5 10.02 5 9 C4.360625 8.690625 3.72125 8.38125 3.0625 8.0625 C1 7 1 7 0 6 C-0.04080783 4.00041636 -0.04254356 1.99954746 0 0 Z " fill="#6EAD7B" transform="translate(277,244)"/>
<path d="M0 0 C3.96 0 7.92 0 12 0 C12 0.99 12 1.98 12 3 C7.71 2.67 3.42 2.34 -1 2 C-0.67 1.34 -0.34 0.68 0 0 Z " fill="#90C6A1" transform="translate(230,224)"/>
<path d="M0 0 C4.455 1.98 4.455 1.98 9 4 C9 4.66 9 5.32 9 6 C9.99 6.33 10.98 6.66 12 7 C10 8 10 8 7.9375 7.6875 C6 7 6 7 5 5 C3.35636866 4.27840576 1.68949614 3.60648579 0 3 C0 2.01 0 1.02 0 0 Z " fill="#7FB38C" transform="translate(218,137)"/>
<path d="M0 0 C0.99 0.33 1.98 0.66 3 1 C3 5.62 3 10.24 3 15 C2.67 15 2.34 15 2 15 C1.66223316 13.2508503 1.32996329 11.50063855 1 9.75 C0.814375 8.77546875 0.62875 7.8009375 0.4375 6.796875 C0 4 0 4 0 0 Z " fill="#75B18C" transform="translate(494,89)"/>
<path d="M0 0 C1.258125 -0.020625 2.51625 -0.04125 3.8125 -0.0625 C4.52019531 -0.07410156 5.22789062 -0.08570313 5.95703125 -0.09765625 C8 0 8 0 11 1 C11.33 1.99 11.66 2.98 12 4 C7.71 3.34 3.42 2.68 -1 2 C-0.67 1.34 -0.34 0.68 0 0 Z " fill="#80B98B" transform="translate(234,321)"/>
<path d="M0 0 C2 1 2 1 2.75 2.8125 C3.05694702 5.49828639 2.38111722 6.7252187 1 9 C-0.98 5.535 -0.98 5.535 -3 2 C-2.01 1.34 -1.02 0.68 0 0 Z " fill="#66B176" transform="translate(257,257)"/>
<path d="M0 0 C0.33 0 0.66 0 1 0 C1 3.63 1 7.26 1 11 C0.01 11.33 -0.98 11.66 -2 12 C-1.85831863 10.56208484 -1.71148957 9.1246763 -1.5625 7.6875 C-1.48128906 6.88699219 -1.40007812 6.08648437 -1.31640625 5.26171875 C-1 3 -1 3 0 0 Z " fill="#6BA87B" transform="translate(341,93)"/>
<path d="M0 0 C0.66 0.33 1.32 0.66 2 1 C2 1.99 2 2.98 2 4 C-0.64 4.33 -3.28 4.66 -6 5 C-6 5.66 -6 6.32 -6 7 C-7.32 6.67 -8.64 6.34 -10 6 C-8.3811004 4.96951963 -6.75467511 3.95085322 -5.125 2.9375 C-4.22007812 2.36902344 -3.31515625 1.80054688 -2.3828125 1.21484375 C-1.20332031 0.61349609 -1.20332031 0.61349609 0 0 Z " fill="#88BE93" transform="translate(378,48)"/>
<path d="M0 0 C-0.67546875 0.26554687 -1.3509375 0.53109375 -2.046875 0.8046875 C-3.38492188 1.33449219 -3.38492188 1.33449219 -4.75 1.875 C-5.63171875 2.22304688 -6.5134375 2.57109375 -7.421875 2.9296875 C-9.6740248 3.8646709 -11.83649459 4.87780794 -14 6 C-13.67 4.68 -13.34 3.36 -13 2 C-12.195625 1.87625 -11.39125 1.7525 -10.5625 1.625 C-9.716875 1.41875 -8.87125 1.2125 -8 1 C-7.67 0.34 -7.34 -0.32 -7 -1 C-3.58234953 -2.36706019 -3.25800204 -2.17200136 0 0 Z " fill="#85B692" transform="translate(234,45)"/>
<path d="M0 0 C3 3.75 3 3.75 3 6 C4.32 6 5.64 6 7 6 C7.66 7.65 8.32 9.3 9 11 C5.67143505 9.83050421 3.0857191 8.92000675 1 6 C0.3125 2.8125 0.3125 2.8125 0 0 Z " fill="#7CB28A" transform="translate(174,402)"/>
<path d="M0 0 C3 2 3 2 3.73046875 4.1640625 C3.88128906 4.97617187 4.03210938 5.78828125 4.1875 6.625 C4.34605469 7.44226563 4.50460938 8.25953125 4.66796875 9.1015625 C4.83232422 10.04128906 4.83232422 10.04128906 5 11 C4.34 11 3.68 11 3 11 C3 10.34 3 9.68 3 9 C2.34 9 1.68 9 1 9 C0.67 6.03 0.34 3.06 0 0 Z " fill="#70AB81" transform="translate(251,402)"/>
<path d="M0 0 C1 3 1 3 -0.0625 5.625 C-2 8 -2 8 -5.1875 8.8125 C-6.115625 8.874375 -7.04375 8.93625 -8 9 C-6.8553125 7.88625 -6.8553125 7.88625 -5.6875 6.75 C-3.5606298 4.5736677 -1.7440044 2.47832204 0 0 Z " fill="#87BB94" transform="translate(254,353)"/>
<path d="M0 0 C4.83628305 0.99043705 9.47618873 1.95698846 14 4 C14 4.33 14 4.66 14 5 C9.13103697 4.40380045 4.67209049 3.43023178 0 2 C0 1.34 0 0.68 0 0 Z " fill="#7CB389" transform="translate(106,213)"/>
<path d="M0 0 C4.29 0 8.58 0 13 0 C13 0.33 13 0.66 13 1 C11.4176994 1.33820166 9.83410625 1.67035939 8.25 2 C6.92742187 2.2784375 6.92742187 2.2784375 5.578125 2.5625 C3 3 3 3 -1 3 C-0.67 2.01 -0.34 1.02 0 0 Z " fill="#77B487" transform="translate(262,185)"/>
<path d="M0 0 C0.185625 0.639375 0.37125 1.27875 0.5625 1.9375 C1.94246056 4.42126213 1.94246056 4.42126213 5.625 4.75 C6.73875 4.8325 7.8525 4.915 9 5 C9 5.33 9 5.66 9 6 C5.04 6 1.08 6 -3 6 C-2 4 -1 2 0 0 Z " fill="#76AC84" transform="translate(472,173)"/>
<path d="M0 0 C3.70066609 0.90460727 5.56497978 1.43868358 7.9375 4.5 C8.288125 5.325 8.63875 6.15 9 7 C8.67 7.66 8.34 8.32 8 9 C6.62437146 7.71034824 5.29233607 6.37310707 4 5 C4 4.34 4 3.68 4 3 C2.68 2.34 1.36 1.68 0 1 C0 0.67 0 0.34 0 0 Z " fill="#7AAF86" transform="translate(357,163)"/>
<path d="M0 0 C0.99 0.33 1.98 0.66 3 1 C1.02 3.31 -0.96 5.62 -3 8 C-3.66 7.67 -4.32 7.34 -5 7 C-4.1875 5.0625 -4.1875 5.0625 -3 3 C-2.01 2.67 -1.02 2.34 0 2 C0 1.34 0 0.68 0 0 Z " fill="#6AAA7C" transform="translate(318,154)"/>
<path d="M0 0 C0 0.66 0 1.32 0 2 C-4.95 3.485 -4.95 3.485 -10 5 C-10 4.01 -10 3.02 -10 2 C-6.49223216 0.39644899 -3.85645121 -0.22036864 0 0 Z " fill="#74AF84" transform="translate(406,80)"/>
<path d="M0 0 C2.0625 0.4375 2.0625 0.4375 4 1 C2 3 0 5 -2 7 C-4.125 6.625 -4.125 6.625 -6 6 C-4 4 -2 2 0 0 Z " fill="#74B383" transform="translate(185,20)"/>
<path d="M0 0 C0.33 0 0.66 0 1 0 C1 3.3 1 6.6 1 10 C-2.47823115 11.15941038 -4.45895578 10.70820884 -8 10 C-8 9.67 -8 9.34 -8 9 C-5.69 9 -3.38 9 -1 9 C-0.67 6.03 -0.34 3.06 0 0 Z " fill="#8ABE96" transform="translate(584,413)"/>
<path d="M0 0 C1.65 0 3.3 0 5 0 C5 0.99 5 1.98 5 3 C5.66 3 6.32 3 7 3 C6.67 3.99 6.34 4.98 6 6 C1.125 3.375 1.125 3.375 0 0 Z " fill="#68AA7B" transform="translate(181,162)"/>
<path d="M0 0 C2.93200474 2.85276137 5.64315404 5.65079784 8 9 C5 9 5 9 2.875 7.3125 C0.83027036 4.79066678 0.35401103 3.18609925 0 0 Z " fill="#68AA77" transform="translate(57,276)"/>
<path d="M0 0 C1.98 0 3.96 0 6 0 C3.24829249 2.9555377 0.58029701 5.11563315 -3 7 C-3.66 7 -4.32 7 -5 7 C-4 4 -4 4 -1.9375 2.8125 C-1.298125 2.544375 -0.65875 2.27625 0 2 C0 1.34 0 0.68 0 0 Z " fill="#74B186" transform="translate(301,169)"/>
<path d="M0 0 C-4.75 4.875 -4.75 4.875 -7 6 C-6.67 4.02 -6.34 2.04 -6 0 C-3 -1 -3 -1 0 0 Z " fill="#6AB083" transform="translate(314,163)"/>
<path d="M0 0 C2.9375 1.3125 2.9375 1.3125 6 3 C6.33 3.99 6.66 4.98 7 6 C6.67 6.66 6.34 7.32 6 8 C3.18226246 6.59113123 1.84131829 4.51646834 0 2 C0 1.34 0 0.68 0 0 Z " fill="#66AB76" transform="translate(135,316)"/>
<path d="M0 0 C3.3125 0.1875 3.3125 0.1875 7 1 C8.9375 3.5625 8.9375 3.5625 10 6 C5.56909529 4.79157144 3.01887244 3.48331435 0 0 Z " fill="#78B183" transform="translate(26,320)"/>
<path d="M0 0 C0 0.66 0 1.32 0 2 C-5.41538462 5.07692308 -5.41538462 5.07692308 -8.375 4.6875 C-8.91125 4.460625 -9.4475 4.23375 -10 4 C-3.375 0 -3.375 0 0 0 Z " fill="#81B892" transform="translate(217,229)"/>
<path d="M0 0 C0.33 0 0.66 0 1 0 C0.25 6.75 0.25 6.75 -2 9 C-2.66 8.01 -3.32 7.02 -4 6 C-2.69593116 3.98079663 -1.36176581 1.98075027 0 0 Z " fill="#6FAD7C" transform="translate(485,157)"/>
<path d="M0 0 C0.66 0.33 1.32 0.66 2 1 C2 3.31 2 5.62 2 8 C1.01 8.33 0.02 8.66 -1 9 C-0.67 6.03 -0.34 3.06 0 0 Z " fill="#5BA26D" transform="translate(296,114)"/>
<path d="M0 0 C2.84383123 1.2748209 5.13754018 2.45137078 7 5 C6.6875 7.1875 6.6875 7.1875 6 9 C3.59927045 6.11912454 1.52708963 3.43595166 0 0 Z " fill="#80B78E" transform="translate(480,63)"/>
<path d="M0 0 C2.97 0.495 2.97 0.495 6 1 C6.33 2.32 6.66 3.64 7 5 C6.01 5 5.02 5 4 5 C1.8125 2.5 1.8125 2.5 0 0 Z " fill="#73B483" transform="translate(272,48)"/>
<path d="M0 0 C2.1519437 3.22791555 2.20086443 4.28400809 2 8 C0.02 8.99 0.02 8.99 -2 10 C-3.39195915 5.82412255 -1.82323219 3.86525224 0 0 Z " fill="#71AF80" transform="translate(166,43)"/>
<path d="M0 0 C2 2 2 2 2 5 C2.99 5 3.98 5 5 5 C5 5.66 5 6.32 5 7 C3.35 6.67 1.7 6.34 0 6 C-0.33 5.01 -0.66 4.02 -1 3 C-1.66 2.34 -2.32 1.68 -3 1 C-2.01 0.67 -1.02 0.34 0 0 Z " fill="#6BB27E" transform="translate(267,41)"/>
<path d="M0 0 C0.66 0 1.32 0 2 0 C1.88601335 1.62580966 1.75844341 3.25067157 1.625 4.875 C1.52058594 6.23238281 1.52058594 6.23238281 1.4140625 7.6171875 C1 10 1 10 -1 12 C-1 7.8725485 -0.54466387 4.084979 0 0 Z " fill="#64A471" transform="translate(225,376)"/>
<path d="M0 0 C4.95 1.98 4.95 1.98 10 4 C7 6 7 6 4.4375 5.9375 C3.633125 5.628125 2.82875 5.31875 2 5 C1.34 3.35 0.68 1.7 0 0 Z " fill="#73B487" transform="translate(114,304)"/>
<path d="M0 0 C0.66 1.32 1.32 2.64 2 4 C2.66 4 3.32 4 4 4 C4 5.98 4 7.96 4 10 C1.24049934 7.50754779 -0.62030099 5.79699009 -1 2 C-0.67 1.34 -0.34 0.68 0 0 Z " fill="#71B284" transform="translate(5,294)"/>
<path d="M0 0 C0.99 0 1.98 0 3 0 C3 3.63 3 7.26 3 11 C2.34 10.67 1.68 10.34 1 10 C0.5859375 7.71484375 0.5859375 7.71484375 0.375 4.9375 C0.30023438 4.01839844 0.22546875 3.09929687 0.1484375 2.15234375 C0.09945313 1.44207031 0.05046875 0.73179688 0 0 Z " fill="#76BA86" transform="translate(376,109)"/>
<path d="M0 0 C0.66 0.33 1.32 0.66 2 1 C1.45773019 4.79588866 -0.20127563 6.47211993 -3 9 C-3 5 -3 5 -1.5 3.375 C-1.005 2.92125 -0.51 2.4675 0 2 C0 1.34 0 0.68 0 0 Z " fill="#69A87A" transform="translate(296,402)"/>
<path d="M0 0 C2.64 0.66 5.28 1.32 8 2 C4.77208445 4.1519437 3.71599191 4.20086443 0 4 C-0.33 3.34 -0.66 2.68 -1 2 C-0.67 1.34 -0.34 0.68 0 0 Z " fill="#72B180" transform="translate(231,144)"/>
<path d="M0 0 C0.66 0.33 1.32 0.66 2 1 C0.375 3 0.375 3 -2 5 C-5.25 5.25 -5.25 5.25 -8 5 C-6.35197949 1.70395897 -3.32254422 1.22409524 0 0 Z " fill="#7CB389" transform="translate(208,6)"/>
<path d="M0 0 C0.99 0.33 1.98 0.66 3 1 C1.35 2.98 -0.3 4.96 -2 7 C-2.66 6.67 -3.32 6.34 -4 6 C-4 5.34 -4 4.68 -4 4 C-3.01 4 -2.02 4 -1 4 C-0.67 2.68 -0.34 1.36 0 0 Z " fill="#72B283" transform="translate(141,403)"/>
<path d="M0 0 C0.99 0.33 1.98 0.66 3 1 C3 5.29 3 9.58 3 14 C2.67 14 2.34 14 2 14 C1.93941406 13.32453125 1.87882812 12.6490625 1.81640625 11.953125 C1.73261719 11.06109375 1.64882812 10.1690625 1.5625 9.25 C1.48128906 8.36828125 1.40007812 7.4865625 1.31640625 6.578125 C1.03761535 4.30649548 0.61209423 2.20148177 0 0 Z " fill="#A2D4AC" transform="translate(100,356)"/>
<path d="M0 0 C1.32 0 2.64 0 4 0 C5.4783226 2.95664519 5.06032783 5.74229737 5 9 C3.05731159 6.08596738 1.53604696 3.14191424 0 0 Z " fill="#86BC92" transform="translate(252,331)"/>
<path d="M0 0 C0.66 0.99 1.32 1.98 2 3 C1.030625 3.28875 0.06125 3.5775 -0.9375 3.875 C-4.10664203 4.64214682 -4.10664203 4.64214682 -5 7 C-5.99 6.67 -6.98 6.34 -8 6 C-7.34 6 -6.68 6 -6 6 C-5.67 5.01 -5.34 4.02 -5 3 C-2.4375 1.3125 -2.4375 1.3125 0 0 Z " fill="#8ABC95" transform="translate(25,221)"/>
<path d="M0 0 C0 0.66 0 1.32 0 2 C-1.32 2 -2.64 2 -4 2 C-4 2.99 -4 3.98 -4 5 C-4.99 5.33 -5.98 5.66 -7 6 C-7.66 5.34 -8.32 4.68 -9 4 C-8.34 4 -7.68 4 -7 4 C-7 3.34 -7 2.68 -7 2 C-2.25 0 -2.25 0 0 0 Z " fill="#7CB88B" transform="translate(36,216)"/>
<path d="M0 0 C2.50037734 2.17424117 3.43628586 3.73045798 4 7 C3.01 7.495 3.01 7.495 2 8 C1.67 6.68 1.34 5.36 1 4 C-0.32 3.67 -1.64 3.34 -3 3 C-2.01 2.67 -1.02 2.34 0 2 C0 1.34 0 0.68 0 0 Z " fill="#66AB7C" transform="translate(207,122)"/>
<path d="M0 0 C1.32 0 2.64 0 4 0 C5.0625 1.8125 5.0625 1.8125 6 4 C5.67 4.99 5.34 5.98 5 7 C3.29115995 5.37660195 1.62553283 3.70680947 0 2 C0 1.34 0 0.68 0 0 Z " fill="#6AAC79" transform="translate(16,400)"/>
<path d="M0 0 C3.875 4.75 3.875 4.75 5 7 C3.35 6.67 1.7 6.34 0 6 C-1.125 2.25 -1.125 2.25 0 0 Z " fill="#6FAC85" transform="translate(58,370)"/>
<path d="M0 0 C0.33 0.66 0.66 1.32 1 2 C1.99 2.33 2.98 2.66 4 3 C3.67 4.32 3.34 5.64 3 7 C1.68 6.34 0.36 5.68 -1 5 C-0.67 3.35 -0.34 1.7 0 0 Z " fill="#56A268" transform="translate(1,280)"/>
<path d="M0 0 C0.66 0.33 1.32 0.66 2 1 C1.67 1.66 1.34 2.32 1 3 C1.99 2.67 2.98 2.34 4 2 C4.33 3.65 4.66 5.3 5 7 C2.11562221 5.70700306 0.12780579 4.34058637 -2 2 C-1.34 2 -0.68 2 0 2 C0 1.34 0 0.68 0 0 Z " fill="#72B582" transform="translate(249,252)"/>
<path d="M0 0 C0.66 0.33 1.32 0.66 2 1 C0 4 0 4 -1.9453125 4.51171875 C-2.66460937 4.56972656 -3.38390625 4.62773437 -4.125 4.6875 C-6.043125 4.8421875 -6.043125 4.8421875 -8 5 C-5.56159764 2.56159764 -3.14759102 1.37707107 0 0 Z " fill="#91C19A" transform="translate(275,141)"/>
<path d="M0 0 C3.3 0 6.6 0 10 0 C6.71299843 1.64350079 4.52069985 2.41321669 1 3 C0.67 2.01 0.34 1.02 0 0 Z " fill="#75B284" transform="translate(114,419)"/>
<path d="M0 0 C0.99 0.33 1.98 0.66 3 1 C2.01 1.495 2.01 1.495 1 2 C0.59270772 4.32156597 0.25561323 6.6568787 0 9 C-0.33 9 -0.66 9 -1 9 C-1.625 5.625 -1.625 5.625 -2 2 C-1.34 1.34 -0.68 0.68 0 0 Z " fill="#7FB28D" transform="translate(244,362)"/>
<path d="M0 0 C1.98362069 2.91708924 1.9876191 4.12380904 1.625 7.75 C1.41875 8.8225 1.2125 9.895 1 11 C-0.41377341 8.36095629 -1.37240135 5.92879371 -2 3 C-1.34 3 -0.68 3 0 3 C0 2.01 0 1.02 0 0 Z " fill="#6CAD7F" transform="translate(2,364)"/>
<path d="M0 0 C0.33 0.99 0.66 1.98 1 3 C3.01508358 3.73323796 3.01508358 3.73323796 5 4 C4.67 5.32 4.34 6.64 4 8 C2.35 6.02 0.7 4.04 -1 2 C-0.67 1.34 -0.34 0.68 0 0 Z " fill="#7EBE8C" transform="translate(89,252)"/>
<path d="M0 0 C2.625 0.375 2.625 0.375 5 1 C4.67 1.99 4.34 2.98 4 4 C2.02 3.34 0.04 2.68 -2 2 C-1.34 1.34 -0.68 0.68 0 0 Z " fill="#6AAE7B" transform="translate(195,172)"/>
<path d="M0 0 C0.33 0 0.66 0 1 0 C1 1.65 1 3.3 1 5 C-0.65 5.33 -2.3 5.66 -4 6 C-2.69593116 3.98079663 -1.36176581 1.98075027 0 0 Z " fill="#78B785" transform="translate(478,167)"/>
<path d="M0 0 C0.33 0 0.66 0 1 0 C1.33 2.64 1.66 5.28 2 8 C1.01 8.33 0.02 8.66 -1 9 C-1.125 2.25 -1.125 2.25 0 0 Z " fill="#6DAB7E" transform="translate(498,102)"/>
<path d="M0 0 C0.598125 0.20625 1.19625 0.4125 1.8125 0.625 C-2.9375 4.625 -2.9375 4.625 -5.1875 4.625 C-5.1875 3.635 -5.1875 2.645 -5.1875 1.625 C-2.1875 -0.375 -2.1875 -0.375 0 0 Z " fill="#61A574" transform="translate(582.1875,106.375)"/>
<path d="M0 0 C2.62187494 1.04874998 3.79371361 1.64931313 5.25 4.125 C5.4975 4.74375 5.745 5.3625 6 6 C4.35 5.67 2.7 5.34 1 5 C0.67 3.35 0.34 1.7 0 0 Z " fill="#74AA82" transform="translate(465,66)"/>
<path d="M0 0 C2.97 1.98 2.97 1.98 6 4 C5.67 4.66 5.34 5.32 5 6 C3.68 5.67 2.36 5.34 1 5 C0.67 3.35 0.34 1.7 0 0 Z " fill="#6DAC7F" transform="translate(458,58)"/>
<path d="M0 0 C0.66 0 1.32 0 2 0 C1.25 2.4375 1.25 2.4375 0 5 C-2.125 5.8125 -2.125 5.8125 -4 6 C-1.125 1.125 -1.125 1.125 0 0 Z " fill="#7FB990" transform="translate(364,57)"/>
</svg>
